<?xml version="1.0" encoding="utf-8"?>
<!-- Generator: Adobe Illustrator 27.5.0, SVG Export Plug-In . SVG Version: 6.00 Build 0)  -->
<svg version="1.1" xmlns="http://www.w3.org/2000/svg" xmlns:xlink="http://www.w3.org/1999/xlink" x="0px" y="0px"
	 viewBox="0 0 500 500" style="enable-background:new 0 0 500 500;" xml:space="preserve">
<g id="BACKGROUND">
	<g>
		<g>
			<g>
				<path style="fill:#EBF0F2;" d="M139.785,189.116h-6.484c-0.258-3.19-2.919-5.728-6.172-5.728h-9.719
					c0.198-0.716,0.313-1.466,0.313-2.243c0-4.656-3.809-8.465-8.465-8.465H94.354c-4.656,0-8.465,3.809-8.465,8.465
					c0,0.777,0.115,1.527,0.313,2.243h-1.326c-3.253,0-5.914,2.539-6.172,5.728h-1.95c-4.42,0-8.037,3.616-8.037,8.037
					c0,4.42,3.617,8.037,8.037,8.037h63.031c4.42,0,8.037-3.617,8.037-8.037C147.822,192.732,144.205,189.116,139.785,189.116z"/>
				<path style="fill:#EBF0F2;" d="M441.111,112.607h-6.484c-0.258-3.19-2.919-5.728-6.172-5.728h-9.719
					c0.198-0.716,0.313-1.466,0.313-2.243c0-4.656-3.809-8.465-8.465-8.465H395.68c-4.656,0-8.465,3.809-8.465,8.465
					c0,0.777,0.115,1.527,0.313,2.243h-1.326c-3.253,0-5.914,2.539-6.172,5.728h-1.95c-4.42,0-8.037,3.617-8.037,8.037
					c0,4.42,3.617,8.037,8.037,8.037h63.031c4.42,0,8.037-3.617,8.037-8.037C449.147,116.224,445.531,112.607,441.111,112.607z"/>
				<path style="fill:#EBF0F2;" d="M260.602,71.484l-3.925,0.024c-0.168-1.93-1.788-3.457-3.758-3.445l-5.883,0.036
					c0.118-0.434,0.184-0.889,0.181-1.359c-0.017-2.818-2.337-5.11-5.156-5.092l-9.022,0.056c-2.818,0.017-5.11,2.338-5.092,5.156
					c0.003,0.47,0.075,0.924,0.198,1.356l-0.803,0.005c-1.969,0.012-3.571,1.559-3.715,3.491l-1.18,0.007
					c-2.676,0.017-4.851,2.219-4.835,4.895c0.016,2.676,2.219,4.851,4.895,4.835l38.154-0.235c2.676-0.017,4.851-2.219,4.835-4.895
					C265.48,73.643,263.277,71.467,260.602,71.484z"/>
			</g>
			<g>
				<g>
					
						<ellipse transform="matrix(0.3909 -0.9204 0.9204 0.3909 -23.4226 588.2801)" style="fill:#C8D3D6;" cx="432.78" cy="311.838" rx="34.697" ry="34.697"/>
					<polygon style="fill:#D7DFE2;" points="450.766,303.775 434.328,322.19 432.78,290.736 431.747,311.71 418.578,296.649 
						431.618,314.341 430.63,334.395 414.204,318.735 430.517,336.695 428.375,380.197 437.184,380.197 434.453,324.728 					"/>
				</g>
				<g>
					
						<ellipse transform="matrix(0.1188 -0.9929 0.9929 0.1188 -192.4513 340.2501)" style="fill:#C8D3D6;" cx="95.474" cy="278.554" rx="53.214" ry="53.214"/>
					<polygon style="fill:#D7DFE2;" points="123.059,266.188 97.849,294.431 95.474,246.191 93.891,278.358 73.694,255.26 
						93.692,282.393 92.178,313.149 66.986,289.133 92.004,316.677 88.72,383.396 102.229,383.396 98.041,298.324 					"/>
				</g>
				<g>
					<ellipse style="fill:#EBF0F2;" cx="245.484" cy="425.034" rx="11.196" ry="1.521"/>
					<path style="fill:#EBF0F2;" d="M452.138,416.641c0,0.84-5.013,1.521-11.196,1.521c-6.183,0-11.196-0.681-11.196-1.521
						s5.013-1.521,11.196-1.521C447.126,415.119,452.138,415.801,452.138,416.641z"/>
					<path style="fill:#EBF0F2;" d="M54.915,409.651c0,0.84-5.013,1.521-11.196,1.521c-6.183,0-11.196-0.681-11.196-1.521
						c0-0.84,5.013-1.521,11.196-1.521C49.903,408.13,54.915,408.811,54.915,409.651z"/>
					<path style="fill:#EBF0F2;" d="M199.095,416.236c0,0.42-2.506,0.76-5.598,0.76s-5.598-0.341-5.598-0.76
						c0-0.42,2.506-0.76,5.598-0.76S199.095,415.816,199.095,416.236z"/>
					<path style="fill:#EBF0F2;" d="M304.059,440.101c0,0.42-2.506,0.76-5.598,0.76c-3.092,0-5.598-0.34-5.598-0.76
						c0-0.42,2.506-0.76,5.598-0.76C301.553,439.34,304.059,439.681,304.059,440.101z"/>
					<path style="fill:#EBF0F2;" d="M329.689,442.382c0,0.42-2.506,0.76-5.598,0.76c-3.092,0-5.598-0.341-5.598-0.76
						c0-0.42,2.506-0.76,5.598-0.76C327.182,441.622,329.689,441.962,329.689,442.382z"/>
					<path style="fill:#EBF0F2;" d="M467.477,434.944c0,0.42-2.506,0.761-5.598,0.761c-3.092,0-5.598-0.341-5.598-0.761
						c0-0.42,2.506-0.76,5.598-0.76C464.97,434.183,467.477,434.524,467.477,434.944z"/>
					<path style="fill:#EBF0F2;" d="M413.276,410.444c0,0.42-2.506,0.761-5.598,0.761c-3.092,0-5.598-0.341-5.598-0.761
						c0-0.42,2.506-0.76,5.598-0.76C410.77,409.683,413.276,410.024,413.276,410.444z"/>
					<path style="fill:#EBF0F2;" d="M287.131,415.475c0,0.42-2.506,0.76-5.598,0.76c-3.092,0-5.598-0.34-5.598-0.76
						c0-0.42,2.506-0.76,5.598-0.76C284.625,414.715,287.131,415.055,287.131,415.475z"/>
					<path style="fill:#EBF0F2;" d="M455.27,403.351c0,0.42-2.506,0.761-5.598,0.761c-3.092,0-5.598-0.34-5.598-0.761
						c0-0.42,2.506-0.76,5.598-0.76C452.763,402.59,455.27,402.931,455.27,403.351z"/>
					<path style="fill:#EBF0F2;" d="M394.334,434.183c0,0.42-2.506,0.76-5.598,0.76c-3.092,0-5.598-0.34-5.598-0.76
						c0-0.42,2.506-0.76,5.598-0.76C391.828,433.423,394.334,433.763,394.334,434.183z"/>
					<path style="fill:#EBF0F2;" d="M253.366,403.714c0,0.42-2.506,0.76-5.598,0.76c-3.092,0-5.598-0.34-5.598-0.76
						c0-0.42,2.506-0.76,5.598-0.76C250.859,402.954,253.366,403.294,253.366,403.714z"/>
					<path style="fill:#EBF0F2;" d="M154.467,433.203c0,0.844-5.036,1.528-11.248,1.528c-6.212,0-11.248-0.684-11.248-1.528
						c0-0.844,5.036-1.528,11.248-1.528C149.431,431.675,154.467,432.359,154.467,433.203z"/>
					<path style="fill:#EBF0F2;" d="M356.6,426.555c0,0.844-5.036,1.528-11.248,1.528c-6.212,0-11.248-0.684-11.248-1.528
						c0-0.844,5.036-1.528,11.248-1.528C351.564,425.027,356.6,425.711,356.6,426.555z"/>
					<path style="fill:#EBF0F2;" d="M120.701,420.674c0,0.42-2.506,0.76-5.598,0.76s-5.598-0.34-5.598-0.76
						c0-0.42,2.506-0.76,5.598-0.76S120.701,420.254,120.701,420.674z"/>
					<path style="fill:#EBF0F2;" d="M189.047,421.006c0,0.42-2.506,0.76-5.598,0.76c-3.092,0-5.598-0.34-5.598-0.76
						c0-0.42,2.506-0.76,5.598-0.76C186.541,420.245,189.047,420.586,189.047,421.006z"/>
					<path style="fill:#EBF0F2;" d="M361.492,408.13c0,0.42-2.506,0.76-5.598,0.76c-3.092,0-5.598-0.34-5.598-0.76
						c0-0.42,2.506-0.76,5.598-0.76C358.986,407.369,361.492,407.71,361.492,408.13z"/>
					<path style="fill:#EBF0F2;" d="M77.046,419.498c0,0.42-2.506,0.76-5.598,0.76c-3.092,0-5.598-0.34-5.598-0.76
						c0-0.42,2.506-0.76,5.598-0.76C74.54,418.737,77.046,419.078,77.046,419.498z"/>
					<ellipse style="fill:#EBF0F2;" cx="141.142" cy="403.351" rx="5.598" ry="0.761"/>
					<path style="fill:#EBF0F2;" d="M215.093,441.622c0,0.42-2.506,0.76-5.598,0.76c-3.092,0-5.598-0.34-5.598-0.76
						c0-0.42,2.506-0.76,5.598-0.76C212.587,440.861,215.093,441.202,215.093,441.622z"/>
				</g>
				<path style="fill:#D7DFE2;" d="M424.928,373.735c-0.983-0.328-3.503,4.167-6.275,10.856c2.614-19.559,2.323-24.919,1.233-25.275
					c-1.047-0.342-6.608,13.226-7.647,23.769c0.418-19.494,0.036-29.288-1.145-29.386c-1.218-0.1-2.283,10.396-5.2,30.912
					c-1.835-11.583-4.141-17.625-4.914-17.555c-0.819,0.075-0.04,7.072,0.334,20.227c-3.77-7.811-6.871-12.009-7.299-11.831
					c-0.483,0.202,1.17,5.513,4.961,15.933h22.946C421.922,391.386,426.502,374.26,424.928,373.735z"/>
				<path style="fill:#D7DFE2;" d="M74.714,373.735c-0.983-0.328-3.503,4.167-6.275,10.856c2.614-19.559,2.323-24.919,1.233-25.275
					c-1.047-0.342-6.609,13.226-7.647,23.769c0.418-19.494,0.036-29.288-1.145-29.386c-1.218-0.1-2.283,10.396-5.2,30.912
					c-1.835-11.583-4.141-17.625-4.913-17.555c-0.819,0.075-0.04,7.072,0.334,20.227c-3.77-7.811-6.871-12.009-7.299-11.831
					c-0.483,0.202,1.17,5.513,4.961,15.933h22.946C71.708,391.386,76.288,374.26,74.714,373.735z"/>
				<ellipse style="fill:#EBF0F2;" cx="391.391" cy="429.157" rx="41.094" ry="6.548"/>
				<ellipse style="fill:#EBF0F2;" cx="103.951" cy="426.268" rx="60.231" ry="8.463"/>
			</g>
		</g>
		<g>
			<path style="fill:#D7DFE2;" d="M363.556,397.361H136.444c-6.01,0-10.882-4.872-10.882-10.882V113.521
				c0-6.01,4.872-10.882,10.882-10.882h227.111c6.01,0,10.882,4.872,10.882,10.882v272.958
				C374.438,392.489,369.566,397.361,363.556,397.361z"/>
			<rect x="136.639" y="115" style="fill:#F8FAFB;" width="226.722" height="226.722"/>
			<g>
				<linearGradient id="SVGID_1_" gradientUnits="userSpaceOnUse" x1="270.405" y1="203.5517" x2="270.405" y2="233.4073">
					<stop  offset="0" style="stop-color:#C5DEF1"/>
					<stop  offset="0.999" style="stop-color:#9AB6FB"/>
				</linearGradient>
				<path style="fill:url(#SVGID_1_);" d="M272.27,233.482l-3.73,1.84c0-0.99,0-2.07,0-3.15L272.27,233.482z"/>
				
					<linearGradient id="SVGID_00000179616995762672243140000008325650553734511000_" gradientUnits="userSpaceOnUse" x1="255.4117" y1="231.5883" x2="283.2198" y2="259.3965">
					<stop  offset="0" style="stop-color:#C5DEF1"/>
					<stop  offset="0.999" style="stop-color:#9AB6FB"/>
				</linearGradient>
				<polygon style="fill:url(#SVGID_00000179616995762672243140000008325650553734511000_);" points="268.54,235.322 
					272.27,233.482 276.49,241.512 261.45,252.592 255.38,241.832 				"/>
				
					<linearGradient id="SVGID_00000119113194982605409130000015477266938795174079_" gradientUnits="userSpaceOnUse" x1="315.54" y1="394.1724" x2="315.54" y2="332.1035">
					<stop  offset="0" style="stop-color:#C5DEF1"/>
					<stop  offset="0.999" style="stop-color:#9AB6FB"/>
				</linearGradient>
				<path style="fill:url(#SVGID_00000119113194982605409130000015477266938795174079_);" d="M320.32,341.722h-9.56
					c0,0,1.12-39.62,2.57-37.41C314.6,306.252,319.21,334.832,320.32,341.722z"/>
				
					<linearGradient id="SVGID_00000134948823837587967270000004235321023429307029_" gradientUnits="userSpaceOnUse" x1="267.694" y1="220.5549" x2="307.832" y2="338.0722">
					<stop  offset="0" style="stop-color:#C5DEF1"/>
					<stop  offset="0.999" style="stop-color:#9AB6FB"/>
				</linearGradient>
				<path style="fill:url(#SVGID_00000134948823837587967270000004235321023429307029_);" d="M361.53,341.722h-41.21
					c-1.11-6.89-5.72-35.47-6.99-37.41c-1.45-2.21-2.57,37.41-2.57,37.41H250v-90.93l5.38-8.96l6.07,10.76l15.04-11.08
					c13.36,2.78,39.92,8.41,50.5,11.39C350.91,259.662,361.53,341.722,361.53,341.722z"/>
				
					<linearGradient id="SVGID_00000131360905148460948120000017005656991636491170_" gradientUnits="userSpaceOnUse" x1="224.8144" y1="130.6311" x2="315.7357" y2="257.9208">
					<stop  offset="0" style="stop-color:#868BEF"/>
					<stop  offset="0.9472" style="stop-color:#8677EF"/>
				</linearGradient>
				<path style="fill:url(#SVGID_00000131360905148460948120000017005656991636491170_);" d="M299.72,164.832
					c-0.62-5.91-8.02-9-9.47-14.76c-0.87-3.43,0.55-7.24-0.76-10.52c-1.36-3.38-5.17-5.07-8.76-5.68
					c-3.58-0.62-7.34-0.52-10.72-1.86c-0.82-0.32-1.63-0.75-2.21-1.42c-0.89-1.04-1.09-2.53-1.92-3.63c-1.7-2.27-5.2-1.95-7.88-1
					c-2.6,0.92-5.38,2.25-8,1.48c-2.62,0.77-5.4-0.56-8-1.48c-2.68-0.95-6.18-1.27-7.88,1c-0.83,1.1-1.03,2.59-1.92,3.63
					c-0.58,0.67-1.39,1.1-2.21,1.42c-3.38,1.34-7.14,1.24-10.72,1.86c-3.59,0.61-7.4,2.3-8.76,5.68c-1.31,3.28,0.11,7.09-0.76,10.52
					c-1.45,5.76-8.85,8.85-9.47,14.76c-0.45,4.3,2.98,8.18,3,12.49c0.01,1.71-0.51,3.48,0.12,5.07c0.39,1.02,1.19,1.77,2.06,2.46
					c-0.01-5.09,2.33-6.06,4.12-4.95c1.8,1.1,3.45,11.17,4,11.44c0.56,0.28,3.31-19.17,4.42-22.89c1.1-3.73,6.48-4,8.27-7.31
					c1.8-3.31,2.35-5.52,6.76-5.66c4.42-0.14,16.97,0,16.97,0s12.55-0.14,16.97,0c4.41,0.14,4.96,2.35,6.76,5.66
					c1.79,3.31,7.17,3.58,8.27,7.31c1.11,3.72,3.86,23.17,4.42,22.89c0.55-0.27,2.2-10.34,4-11.44c1.79-1.11,4.13-0.14,4.12,4.95
					c0.87-0.69,1.67-1.44,2.06-2.46c0.63-1.59,0.11-3.36,0.12-5.07C296.74,173.012,300.17,169.132,299.72,164.832z"/>
				<path style="fill:#F2B59E;" d="M250,232.172c-3.43,0-10.52-1.23-16.89-6.15v0.01c0,0,6.75,9.73,16.89,9.73
					c10.14,0,16.89-9.73,16.89-9.73v-0.01C260.52,230.942,253.43,232.172,250,232.172z"/>
				<path style="fill:#FFC7AE;" d="M266.89,226.022v0.01c0,0-6.75,9.73-16.89,9.73c-10.14,0-16.89-9.73-16.89-9.73v-0.01
					c-0.56-0.43-1.11-0.88-1.65-1.37c0,0,0,3.75,0,7.52c0,1.08,0,2.16,0,3.15l13.16,6.51l5.38,8.96l5.38-8.96l13.16-6.51
					c0-0.99,0-2.07,0-3.15c0-3.77,0-7.52,0-7.52C268,225.142,267.45,225.592,266.89,226.022z"/>
				<path style="fill:#FFC7AE;" d="M290.42,179.902c-1.8,1.1-3.45,11.17-4,11.44c-0.56,0.28-3.31-19.17-4.42-22.89
					c-1.1-3.73-6.48-4-8.27-7.31c-1.8-3.31-2.35-5.52-6.76-5.66c-4.42-0.14-16.97,0-16.97,0s-12.55-0.14-16.97,0
					c-4.41,0.14-4.96,2.35-6.76,5.66c-1.79,3.31-7.17,3.58-8.27,7.31c-1.11,3.72-3.86,23.17-4.42,22.89
					c-0.55-0.27-2.2-10.34-4-11.44c-1.79-1.11-4.13-0.14-4.12,4.95c0.004,2.107,0.41,4.295,0.874,6.343
					c0.22,0.972,1.361,4.792,4.218,5.453c1.532,0.354,2.448,0.078,2.478,0.164c3.98,11.47,10.85,21.33,18.43,27.84
					c0.54,0.49,1.09,0.94,1.65,1.37c6.37,4.92,13.46,6.15,16.89,6.15s10.52-1.23,16.89-6.15c0.56-0.43,1.11-0.88,1.65-1.37
					c7.58-6.51,14.45-16.37,18.43-27.84c0.03-0.086,0.945,0.19,2.478-0.164c2.857-0.661,3.998-4.481,4.218-5.453
					c0.464-2.048,0.87-4.236,0.874-6.343C294.55,179.762,292.21,178.792,290.42,179.902z"/>
				
					<linearGradient id="SVGID_00000008861047229499645060000013997343029377126281_" gradientUnits="userSpaceOnUse" x1="229.595" y1="203.5517" x2="229.595" y2="233.4073">
					<stop  offset="0" style="stop-color:#C5DEF1"/>
					<stop  offset="0.999" style="stop-color:#9AB6FB"/>
				</linearGradient>
				<path style="fill:url(#SVGID_00000008861047229499645060000013997343029377126281_);" d="M227.73,233.482l3.73,1.84
					c0-0.99,0-2.07,0-3.15L227.73,233.482z"/>
				
					<linearGradient id="SVGID_00000010294673314136538150000014255017467159655041_" gradientUnits="userSpaceOnUse" x1="239.6967" y1="247.3033" x2="267.5048" y2="275.1114">
					<stop  offset="0" style="stop-color:#C5DEF1"/>
					<stop  offset="0.999" style="stop-color:#9AB6FB"/>
				</linearGradient>
				<polygon style="fill:url(#SVGID_00000010294673314136538150000014255017467159655041_);" points="231.46,235.322 
					227.73,233.482 223.51,241.512 238.55,252.592 244.62,241.832 				"/>
				
					<linearGradient id="SVGID_00000172412413123014087680000010894958232056389029_" gradientUnits="userSpaceOnUse" x1="184.46" y1="394.1724" x2="184.46" y2="332.1035">
					<stop  offset="0" style="stop-color:#C5DEF1"/>
					<stop  offset="0.999" style="stop-color:#9AB6FB"/>
				</linearGradient>
				<path style="fill:url(#SVGID_00000172412413123014087680000010894958232056389029_);" d="M179.68,341.722h9.56
					c0,0-1.12-39.62-2.57-37.41C185.4,306.252,180.79,334.832,179.68,341.722z"/>
				
					<linearGradient id="SVGID_00000152260345496878093160000015721276216570658741_" gradientUnits="userSpaceOnUse" x1="178.751" y1="250.922" x2="218.8888" y2="368.4388">
					<stop  offset="0" style="stop-color:#C5DEF1"/>
					<stop  offset="0.999" style="stop-color:#9AB6FB"/>
				</linearGradient>
				<path style="fill:url(#SVGID_00000152260345496878093160000015721276216570658741_);" d="M138.47,341.722h41.21
					c1.11-6.89,5.72-35.47,6.99-37.41c1.45-2.21,2.57,37.41,2.57,37.41H250v-90.93l-5.38-8.96l-6.07,10.76l-15.04-11.08
					c-13.36,2.78-39.92,8.41-50.5,11.39C149.09,259.662,138.47,341.722,138.47,341.722z"/>
				
					<linearGradient id="SVGID_00000152231691259148727680000004019916524201316745_" gradientUnits="userSpaceOnUse" x1="249.4169" y1="274.5549" x2="257.5052" y2="282.6432">
					<stop  offset="0" style="stop-color:#C5DEF1"/>
					<stop  offset="0.999" style="stop-color:#9AB6FB"/>
				</linearGradient>
				<path style="fill:url(#SVGID_00000152231691259148727680000004019916524201316745_);" d="M254.552,277.552
					c0,1.181-0.957,2.138-2.138,2.138c-1.181,0-2.138-0.957-2.138-2.138c0-1.181,0.957-2.138,2.138-2.138
					C253.594,275.414,254.552,276.371,254.552,277.552z"/>
				
					<linearGradient id="SVGID_00000089557905156711160740000005549976101071657871_" gradientUnits="userSpaceOnUse" x1="249.4169" y1="324.1411" x2="257.5052" y2="332.2294">
					<stop  offset="0" style="stop-color:#C5DEF1"/>
					<stop  offset="0.999" style="stop-color:#9AB6FB"/>
				</linearGradient>
				<path style="fill:url(#SVGID_00000089557905156711160740000005549976101071657871_);" d="M254.552,327.138
					c0,1.181-0.957,2.138-2.138,2.138c-1.181,0-2.138-0.957-2.138-2.138c0-1.181,0.957-2.138,2.138-2.138
					C253.594,325,254.552,325.957,254.552,327.138z"/>
			</g>
			<g>
				<rect x="243.793" y="360.351" style="fill:#B3C2C6;" width="80.69" height="4.375"/>
				<rect x="243.793" y="369.059" style="fill:#B3C2C6;" width="80.69" height="4.375"/>
				<rect x="243.793" y="377.767" style="fill:#B3C2C6;" width="51.94" height="4.375"/>
			</g>
			<g>
				
					<linearGradient id="SVGID_00000029027806660624940770000002092866940537660582_" gradientUnits="userSpaceOnUse" x1="177.4877" y1="359.972" x2="187.7305" y2="377.713">
					<stop  offset="0" style="stop-color:#DE697B"/>
					<stop  offset="1" style="stop-color:#BD2773"/>
				</linearGradient>
				<path style="fill:url(#SVGID_00000029027806660624940770000002092866940537660582_);" d="M172.419,371.751
					c-2.374-2.374-2.374-6.237,0-8.611c1.15-1.15,2.679-1.783,4.305-1.783s3.155,0.633,4.305,1.783l0.774,0.774l0.774-0.774
					c1.15-1.15,2.679-1.783,4.305-1.783c1.626,0,3.155,0.633,4.305,1.783c2.374,2.374,2.374,6.237,0,8.611l-9.384,9.384
					L172.419,371.751z"/>
				<path style="fill:#F8FAFB;" d="M210.351,361.358c-1.435,0-2.602,1.167-2.602,2.602v10.408c0,1.435,1.167,2.602,2.602,2.602
					h13.167l4.149,4.166v-4.166h3.5c1.435,0,2.602-1.167,2.602-2.602V363.96c0-1.435-1.167-2.602-2.602-2.602H210.351z"/>
			</g>
		</g>
	</g>
</g>
<g id="OBJECTS">
	<g id="XMLID_1_">
		<g>
			<path style="fill:#F2B59E;" d="M115.659,328.303c2.11,0.97,4.01,1.62,4.83,1.62c1.43,0,4.18-2.62,5.61-4.09
				c-0.7,2.32-2.32,4.84-4.77,5.56c-0.68,0.2-1.43,0.12-2.15-0.13c-0.06-0.02-0.13-0.04-0.19-0.06
				C117.499,330.633,116.139,329.363,115.659,328.303z"/>
			
				<linearGradient id="SVGID_00000168806364542973359300000001052230017564446894_" gradientUnits="userSpaceOnUse" x1="99.7294" y1="330.214" x2="104.9185" y2="339.2018">
				<stop  offset="0" style="stop-color:#DE697B"/>
				<stop  offset="1" style="stop-color:#BD2773"/>
			</linearGradient>
			<path style="fill:url(#SVGID_00000168806364542973359300000001052230017564446894_);" d="M103.969,330.403
				c-2.79,3.7-5.79,12.69-5.79,12.69c-1.32-0.46-2.29-1.04-2.97-1.56c-0.95-0.7-1.35-1.29-1.35-1.29s3.31-6.96,6.32-9.84
				c1.35-1.34,2.96-2.26,4.96-3.08c1.13-0.47,2.39-0.9,3.79-1.37c-0.44,0.16-0.84,0.34-1.21,0.53
				C106.219,327.253,104.979,328.633,103.969,330.403z"/>
			<path style="fill:#56548B;" d="M98.039,422.133c0.69,0.1,2.18,0.31,3.54,0.45c2.86,0.46,13.75,0,13.75,0
				c0.92,0.65,1.7,1.25,2.32,1.78c-0.13-0.09-0.28-0.16-0.43-0.22c-0.54-0.14-1.12-0.3-1.72-0.49c-2-0.34-4.49-0.14-6.79,0.15
				c-4.35,0.55-8.46-1.06-13.34,0.2c-1.62,0.43-2.75,1.13-3.48,1.97c-0.6,0.69-0.93,1.47-1.07,2.28l-0.04-0.01
				c0.04-0.45,0.13-0.86,0.25-1.25c0.95-3.17,3.95-4.43,6.62-4.92c0,0,0.14,0.02,0.38,0.06H98.039z"/>
			
				<linearGradient id="SVGID_00000142134368380224351130000018160218681643390859_" gradientUnits="userSpaceOnUse" x1="132.9958" y1="387.1112" x2="142.8038" y2="404.0991">
				<stop  offset="0" style="stop-color:#DE697B"/>
				<stop  offset="1" style="stop-color:#BD2773"/>
			</linearGradient>
			<path style="fill:url(#SVGID_00000142134368380224351130000018160218681643390859_);" d="M122.369,393.613
				c2.34-0.06,3.28-2.26,3.28-2.26s0.68-0.08,1.86-0.25c0,0,0.02,0,0.04,0c1.05-0.06,20.04-1.15,21.71-1.15c1.69,0,3,8.41,3.03,8.67
				c-4.62-0.01-8.48-0.41-8.48-0.41c0.04-0.45,0.06-0.79,0.06-0.79l-21.24-2.15L122.369,393.613z"/>
			
				<linearGradient id="SVGID_00000062877787480297946230000008188120790881006738_" gradientUnits="userSpaceOnUse" x1="114.6919" y1="390.0099" x2="139.5402" y2="433.0484">
				<stop  offset="0" style="stop-color:#868BEF"/>
				<stop  offset="0.9824" style="stop-color:#727AEF"/>
			</linearGradient>
			<path style="fill:url(#SVGID_00000062877787480297946230000008188120790881006738_);" d="M106.629,396.693
				c2.7-0.96,4.96-1.51,6.47-1.42c2.06,0.12,5.09,0.5,8.49,0.99l0.01,0.01v-0.01c0.21,0.03,0.41,0.06,0.61,0.09
				c7.74,1.15,17.15,2.87,21.47,3.67c0.03-0.47,0.09-1.24,0.13-1.81c0,0,3.86,0.4,8.48,0.41c1.29,0.01,2.64-0.02,3.98-0.09
				c1.33,5.48,2.5,10.99,2.69,14.72c0.43,8.13-7.42,15.94-17.18,15.04c-3.22-0.3-8.19-2.3-13.09-4.67
				c-7.88-3.8-15.59-8.52-15.59-8.52s-1.44,0.39-3.72,1.01l-21.76-10.01v0.01c-0.14-0.08-0.28-0.16-0.42-0.23
				c3.05-1.64,6.25-3.3,9.35-4.81C100.179,399.303,103.669,397.753,106.629,396.693z"/>
			<path style="fill:#E5E6E7;" d="M90.389,361.533l2.1-0.01h10.17h2.04h11.25c0,0,3.68,22.67,5.19,31.98
				c0.03,0.15,0.05,0.3,0.08,0.45c0.13,0.81,0.24,1.49,0.33,2.04c0.01,0.09,0.03,0.18,0.04,0.27c-3.4-0.49-6.43-0.87-8.49-0.99
				c-1.51-0.09-3.77,0.46-6.47,1.42c-12.81-0.62-29.12-1.42-29.12-1.42l-0.93-3.83l-7.22-29.79L90.389,361.533z"/>
			<path style="fill:#FFC7AE;" d="M127.199,325.393c0.73,1.41,2.59,2.09,4.25,2.23c1.17,0.09,2.36,0.01,3.51-0.22
				c0.87-0.18,1.76-0.45,2.65-0.68c-3.29,2.31-4.58,6.94-8.17,7.83c-3.58,0.9-18.49-0.24-19.53-1.41c-0.92-1.03-0.7-4.67,0.47-6.88
				c2.74,2.49,6.64,4.32,8.61,4.94c0.06,0.02,0.13,0.04,0.19,0.06c0.72,0.25,1.47,0.33,2.15,0.13c2.45-0.72,4.07-3.24,4.77-5.56
				L127.199,325.393z"/>
			<path style="fill:#BBBDBF;" d="M122.369,393.613l0.26,1.66c0,0,0,0.01-0.01,0.03c-0.02,0.03-0.04,0.09-0.07,0.17
				c-0.08,0.2-0.21,0.54-0.34,0.87v0.01c-0.2-0.03-0.4-0.06-0.61-0.09c-0.02-0.09-0.04-0.18-0.05-0.27
				c-0.09-0.55-0.2-1.23-0.33-2.04c-0.02-0.14-0.05-0.29-0.08-0.45c-1.51-9.31-5.19-31.98-5.19-31.98h1.29l3.63,22.71
				L122.369,393.613z"/>
			
				<linearGradient id="SVGID_00000139274727151488616760000012875869798633741238_" gradientUnits="userSpaceOnUse" x1="112.9001" y1="323.4824" x2="143.4477" y2="376.3925">
				<stop  offset="0" style="stop-color:#DE697B"/>
				<stop  offset="1" style="stop-color:#BD2773"/>
			</linearGradient>
			<path style="fill:url(#SVGID_00000139274727151488616760000012875869798633741238_);" d="M137.859,347.883
				c0,0,0.54,4.62,2.92,12.06c1.84,5.74,4.33,12.24,5.37,14.89l-25.28,9.4l-3.63-22.71h-1.29h-11.25c-2.21-2.54-4.5-5.31-4.84-7.31
				c-0.26-1.53-0.28-5.79,0.33-10.56c0.57-4.61,1.72-9.7,3.78-13.25c1.01-1.77,2.25-3.15,3.75-3.92c0.37-0.19,0.77-0.37,1.21-0.53
				c0.5-0.19,1.05-0.37,1.64-0.53c0.08,0.06,0.16,0.11,0.24,0.16c-0.16,0.2-0.3,0.43-0.43,0.68c-1.17,2.21-1.39,5.85-0.47,6.88
				c1.04,1.17,15.95,2.31,19.53,1.41c3.59-0.89,4.88-5.52,8.17-7.83c0.35-0.09,0.71-0.17,1.07-0.24c5.83,1.4,9.51,3.56,13.54,11.22
				c0.09,0.16,0.18,0.33,0.26,0.5c-11.05,0.79-13.4,12.01-13.4,12.01L137.859,347.883z"/>
			<path style="fill:#FFC7AE;" d="M126.949,324.743c0.06,0.23,0.14,0.44,0.25,0.65l-1.1,0.44c-1.43,1.47-4.18,4.09-5.61,4.09
				c-0.82,0-2.72-0.65-4.83-1.62v-0.01c-0.58-0.27-1.18-0.57-1.78-0.88l-0.01-0.01c-1.01-0.53-2.02-1.12-2.92-1.72
				c-0.05-0.03-0.09-0.06-0.14-0.1c-0.08-0.05-0.16-0.1-0.24-0.16c-0.75-0.52-1.42-1.06-1.94-1.58c-0.36-0.89-0.38-1.9-0.35-2.87
				c0.02-0.48,0.04-0.96,0.17-1.42c0.57-2.05,2.56-3.63,3.81-5.27c1.4-1.84,2.44-3.91,2.8-6.21c0.01-0.06,4.1,1.33,4.35,1.39
				c1.9,0.43,3.29,0.99,3.89,3.1c0.48,1.69,0.19,3.5,0.04,5.26c-0.04,0.47-0.07,0.95,0.09,1.38c0.5,1.33,2.41,1.58,3.08,2.83
				C126.939,322.843,126.729,323.843,126.949,324.743z"/>
			<path style="fill:#FFC7AE;" d="M146.149,374.833l4.84-1.8l-11.91-22.82c0,0,2.35-11.22,13.4-12.01c0.53,1.02,1.07,2.14,1.61,3.36
				c5.9,13.26,15.33,31.31,14.12,36.09c-0.86,3.41-7.43,6.24-15.16,8.41c-9.63,2.72-21.06,4.43-25.5,5.04c-0.02,0-0.04,0-0.04,0
				c-1.18,0.17-1.86,0.25-1.86,0.25s-0.94,2.2-3.28,2.26l-1.5-9.38L146.149,374.833z"/>
			<path style="fill:#F2B59E;" d="M115.659,328.303c0.48,1.06,1.84,2.33,3.33,2.9c-1.97-0.62-5.87-2.45-8.61-4.94
				c0.13-0.25,0.27-0.48,0.43-0.68c0.05,0.04,0.09,0.07,0.14,0.1c0.9,0.6,1.91,1.19,2.92,1.72l0.01,0.01
				c0.6,0.31,1.2,0.61,1.78,0.88V328.303z"/>
			<path style="fill:#6464AD;" d="M119.219,426.123c0.91,2.41-2.86,6-10.24,7.43c-7.38,1.43-15.03,1.82-16.95-0.77
				c-0.91-1.22-1.46-2.92-1.21-4.53c0.14-0.81,0.47-1.59,1.07-2.28c0.73-0.84,1.86-1.54,3.48-1.97c4.88-1.26,8.99,0.35,13.34-0.2
				c2.3-0.29,4.79-0.49,6.79-0.15c0.6,0.19,1.18,0.35,1.72,0.49c0.15,0.06,0.3,0.13,0.43,0.22c0.74,0.63,1.26,1.16,1.48,1.56
				C119.169,425.993,119.199,426.063,119.219,426.123z"/>
			
				<linearGradient id="SVGID_00000060712743844716675240000001296991486662216372_" gradientUnits="userSpaceOnUse" x1="110.1577" y1="294.2173" x2="139.5748" y2="345.1692">
				<stop  offset="0" style="stop-color:#56548B"/>
				<stop  offset="1" style="stop-color:#3F3A81"/>
			</linearGradient>
			<path style="fill:url(#SVGID_00000060712743844716675240000001296991486662216372_);" d="M138.679,326.483
				c-0.36,0.07-0.72,0.15-1.07,0.24c-0.89,0.23-1.78,0.5-2.65,0.68c-1.15,0.23-2.34,0.31-3.51,0.22c-1.66-0.14-3.52-0.82-4.25-2.23
				c-0.11-0.21-0.19-0.42-0.25-0.65c-0.22-0.9-0.01-1.9-0.44-2.71c-0.67-1.25-2.58-1.5-3.08-2.83c-0.16-0.43-0.13-0.91-0.09-1.38
				c0.15-1.76,0.44-3.57-0.04-5.26c-0.6-2.11-1.99-2.67-3.89-3.1c-0.25-0.06-4.34-1.45-4.35-1.39c-0.36,2.3-1.4,4.37-2.8,6.21
				c-1.25,1.64-3.24,3.22-3.81,5.27c-0.13,0.46-0.15,0.94-0.17,1.42c-0.03,0.97-0.01,1.98,0.35,2.87c0.52,0.52,1.19,1.06,1.94,1.58
				c-0.59,0.16-1.14,0.34-1.64,0.53c-1.4,0.47-2.66,0.9-3.79,1.37c-0.68-0.63-1.64-0.94-2.57-1.37c-1.46-0.66-1.72-1.92-1.42-3.41
				c1.02-4.95-2.59-4.73-2.14-11.31c0.35-4.99,2.43-10.46,6.2-13.85c2.1-1.9,4.76-2.98,7.6-2.96c1.76,0.02,5.06,1.03,5.06,1.03
				s1.95-2.07,7.37-0.9c2.32,0.5,4.74,1.55,5.68,3.73c0.63,1.44,0.59,3.17,1.53,4.43c0.5,0.67,1.22,1.14,1.98,1.49
				c1.97,0.93,4.37,1.32,5.66,3.06c1.44,1.95,0.94,4.91,2.54,6.72c1.15,1.31,3.03,1.62,4.56,2.45c2.33,1.25,3.53,3.47,3.76,6.05
				c0.05,0.65,0.05,1.32,0.32,1.92c0.65,1.47,2.52,1.85,3.86,2.75c1.83,1.25,2.66,3.71,2.14,5.87c-0.52,2.15-2.97,3.91-5.05,4.68
				C148.189,330.043,144.509,327.883,138.679,326.483z"/>
			<path style="fill:#A70067;" d="M156.269,398.533c-1.34,0.07-2.69,0.1-3.98,0.09c-0.03-0.26-1.34-8.67-3.03-8.67
				c-1.67,0-20.66,1.09-21.71,1.15c4.44-0.61,15.87-2.32,25.5-5.04C153.939,389.533,155.159,394.023,156.269,398.533z"/>
			<path style="fill:#A70067;" d="M139.079,350.213l11.91,22.82l-4.84,1.8c-1.04-2.65-3.53-9.15-5.37-14.89
				c-2.38-7.44-2.92-12.06-2.92-12.06L139.079,350.213z"/>
			<path style="fill:#BBBDBF;" d="M122.629,395.273l21.24,2.15c0,0-0.02,0.34-0.06,0.79c-0.04,0.57-0.1,1.34-0.13,1.81
				c-4.32-0.8-13.73-2.52-21.47-3.67v-0.01c0.13-0.33,0.26-0.67,0.34-0.87c0.03-0.08,0.06-0.14,0.07-0.17
				C122.629,395.283,122.629,395.273,122.629,395.273z"/>
			<path style="fill:#5A71D1;" d="M113.099,415.103c0,0,7.71,4.72,15.59,8.52c-6.65-0.74-13.19-1.9-15.13-2.26c0,0,0,0-0.01,0
				c-1.03-0.7-2.16-1.43-3.38-2.2c-0.01-0.01-0.03-0.01-0.04-0.02c-1.15-0.72-2.37-1.47-3.64-2.24c1.06-0.29,2.04-0.56,2.89-0.79
				C111.659,415.493,113.099,415.103,113.099,415.103z"/>
			<path style="fill:#FFC7AE;" d="M113.549,421.363c0.01,0,0.01,0,0.01,0c0.63,0.42,1.23,0.83,1.77,1.22c0,0-10.89,0.46-13.75,0
				c-1.36-0.14-2.85-0.35-3.54-0.45c1.67-0.51,2.86-1.22,3.01-1.31c0.01-0.01,0.01-0.01,0.01-0.01c2.51-1.89,6.18-3.02,9.07-1.67
				c0.01,0.01,0.03,0.01,0.04,0.02C111.389,419.933,112.519,420.663,113.549,421.363z"/>
			<path style="fill:#5A71D1;" d="M87.619,406.103l21.76,10.01c-0.85,0.23-1.83,0.5-2.89,0.79c-6.11-3.69-13.29-7.73-18.87-10.79
				V406.103z"/>
			
				<linearGradient id="SVGID_00000176742291873150074700000010900464029987000242_" gradientUnits="userSpaceOnUse" x1="71.2014" y1="386.2303" x2="95.1849" y2="427.7709">
				<stop  offset="0" style="stop-color:#868BEF"/>
				<stop  offset="0.9824" style="stop-color:#727AEF"/>
			</linearGradient>
			<path style="fill:url(#SVGID_00000176742291873150074700000010900464029987000242_);" d="M87.199,405.883
				c0.14,0.07,0.28,0.15,0.42,0.23c5.58,3.06,12.76,7.1,18.87,10.79c1.27,0.77,2.49,1.52,3.64,2.24c-2.89-1.35-6.56-0.22-9.07,1.67
				c0,0,0,0-0.01,0.01c-0.15,0.09-1.34,0.8-3.01,1.31h-0.01c-0.24-0.04-0.38-0.06-0.38-0.06c-2.67,0.49-5.67,1.75-6.62,4.92
				c0,0-3.81-1.24-9.02-3.26c-3.38-1.31-7.34-2.94-11.23-4.78c0,0,0,0-0.01-0.01c-0.16-0.07-0.33-0.15-0.49-0.23
				c-1.04-0.5-2.08-1.01-3.09-1.53c-0.37-0.19-0.73-0.38-1.09-0.57c-5.83-3.1-10.82-6.57-12.45-9.92
				c-4.69-9.66,3.45-15.86,20.97-15.31c0.65,0.02,1.3,0.04,1.96,0.06l0.93,3.83c0,0,16.31,0.8,29.12,1.42
				c-2.96,1.06-6.45,2.61-10.08,4.38h-18.21C78.339,401.073,82.029,403.033,87.199,405.883z"/>
			<path style="fill:#FFC7AE;" d="M104.699,361.523h-2.04h-10.17l-2.1,0.01c0.57-2.48,2.73-11.72,4.82-20
				c0.68,0.52,1.65,1.1,2.97,1.56c0.59,0.22,1.26,0.41,2,0.56h0.01c-0.61,4.77-0.59,9.03-0.33,10.56
				C100.199,356.213,102.489,358.983,104.699,361.523z"/>
			<path style="fill:#A70067;" d="M103.969,330.403c-2.06,3.55-3.21,8.64-3.78,13.25h-0.01c-0.74-0.15-1.41-0.34-2-0.56
				C98.179,343.093,101.179,334.103,103.969,330.403z"/>
			<path style="fill:#5A71D1;" d="M78.339,401.073h18.21c-3.1,1.51-6.3,3.17-9.35,4.81
				C82.029,403.033,78.339,401.073,78.339,401.073z"/>
			<path style="fill:#5A71D1;" d="M82.009,423.733c-0.9,0.26-1.59,0.47-2.02,0.62c0,0-8.37-4.39-9.21-5.4
				C74.669,420.793,78.629,422.423,82.009,423.733z"/>
			
				<linearGradient id="SVGID_00000147207207484092155870000014869686785004858760_" gradientUnits="userSpaceOnUse" x1="70.1772" y1="422.1027" x2="79.9893" y2="422.1027">
				<stop  offset="0" style="stop-color:#868BEF"/>
				<stop  offset="0.9824" style="stop-color:#727AEF"/>
			</linearGradient>
			<path style="fill:url(#SVGID_00000147207207484092155870000014869686785004858760_);" d="M79.989,424.353
				c-1.24,0.41-2.6,0.8-3.9,1.14c-0.37-0.04-0.73-0.1-1.06-0.18c-4.2-0.89-5.21-3.73-4.75-6.6c0.16,0.08,0.33,0.16,0.49,0.23
				c0.01,0.01,0.01,0.01,0.01,0.01C71.619,419.963,79.989,424.353,79.989,424.353z"/>
			<path style="fill:#56548B;" d="M75.029,425.313c0.33,0.08,0.69,0.14,1.06,0.18c-2.23,0.59-4.28,1.04-5.21,1.24
				c-0.12,0.02-0.22,0.04-0.29,0.06c-0.16,0.03-0.25,0.05-0.25,0.05c-9.36,1.82-13.98,0.69-14.47-1.02
				c-0.66-2.3,0.75-4.28,1.94-5.46c2.76-1.83,5.76-2.93,8.29-3.75c0.36,0.19,0.72,0.38,1.09,0.57c-2.39,0.97-4.92,1.98-4.92,1.98
				s0,2.56,0.83,4.77c0.83,2.21,1.58,2.83,1.58,2.83S71.149,425.933,75.029,425.313z"/>
			<path style="fill:#FFC7AE;" d="M70.279,418.713c-0.46,2.87,0.55,5.71,4.75,6.6c-3.88,0.62-10.35,1.45-10.35,1.45
				s-0.75-0.62-1.58-2.83c-0.83-2.21-0.83-4.77-0.83-4.77s2.53-1.01,4.92-1.98C68.199,417.703,69.239,418.213,70.279,418.713z"/>
		</g>
	</g>
	<g id="XMLID_2_">
		<g>
			<path style="fill:#112B46;" d="M381.065,409.854c0,0,4.653,13.045,3.638,15.458c-1.015,2.404-4.022,0.274-12.057-6.71
				c-8.035-6.984-9.297-10.275-9.297-10.275s1.124-2.148,2.87-5.704C368.249,404.827,374.245,410.558,381.065,409.854z"/>
			<path style="fill:#112B46;" d="M405.774,422.022c0,0,11.354,7.944,11.92,10.494c0.567,2.55-3.126,2.55-13.712,1.508
				c-10.595-1.033-13.529-2.989-13.529-2.989s-0.091-3.382-0.247-8.794C394.53,423.183,405.774,422.022,405.774,422.022z"/>
			
				<linearGradient id="SVGID_00000119812544982474014700000012704683283266748297_" gradientUnits="userSpaceOnUse" x1="395.935" y1="151.1194" x2="410.3356" y2="176.062">
				<stop  offset="0" style="stop-color:#4D5DEB"/>
				<stop  offset="1" style="stop-color:#472BB5"/>
			</linearGradient>
			<path style="fill:url(#SVGID_00000119812544982474014700000012704683283266748297_);" d="M423.408,164.285
				c0,0-3.419,6.847-6.81,8.09c0.402-0.75,0.786-1.536,1.143-2.349c0.814-2.953-0.667-4.525-0.667-4.525
				c-5.302,2.943-15.129,2.596-16.034,3.007c0,0-2.112,2.825-2.925,2.34s0.814-3.41,0.814-3.41s-0.247-3.209-3.172-2.038
				c-2.258,0.896-2.852,4.068-1.746,5.722c-0.046,0.055-0.21,0.247-0.457,0.503c-0.448,0.475-1.161,1.179-1.764,1.563
				c-0.978,0.631-2.688,0.768-2.688,0.768v-0.009c-0.759-13.657,5.466-21.455,8.017-23.439c2.541-1.984,4.68-0.786,4.68-0.786
				C415.053,145.454,423.408,164.285,423.408,164.285z"/>
			<path style="fill:#49497C;" d="M427.668,187.44l-7.021,17.826c-0.11,0.283-0.064,0.576,0.082,0.805
				c-0.402-0.411-0.704-0.814-0.704-0.814c-0.128-0.219-0.156-0.494-0.055-0.759l7.021-17.817c0.302-0.768,1.042-1.28,1.874-1.28
				h8.099c0.128,0,0.247,0.036,0.347,0.091c0,0,0.603,0.411,0.941,1.006c-0.128-0.192-0.347-0.329-0.612-0.329h-8.099
				C428.719,186.169,427.969,186.672,427.668,187.44z"/>
			<path style="fill:#56548B;" d="M438.317,187.202l-2.587,5.988c-0.027-0.036-0.064-0.055-0.101-0.082
				c-0.987-0.676-7.66-0.146-8.273,0.229c-0.594,0.384-2.423,5.695-1.664,6.975c0.759,1.298,6.6,0.695,5.613,1.975
				c-0.393,0.512-0.521,1.417-0.548,2.395l-0.366,0.85c-0.247,0.567-0.804,0.932-1.426,0.932h-7.496
				c-0.219,0-0.421-0.082-0.567-0.21c-0.064-0.064-0.128-0.128-0.174-0.183c-0.146-0.229-0.192-0.521-0.082-0.805l7.021-17.826
				c0.302-0.768,1.051-1.271,1.874-1.271h8.099c0.265,0,0.484,0.137,0.612,0.329c0.027,0.046,0.055,0.091,0.073,0.137
				C438.4,186.809,438.4,187.01,438.317,187.202z"/>
			<path style="fill:#423D80;" d="M386.787,349c0.229-1.426,0.375-2.761,0.43-3.995c0.265,1.197,0.439,2.294,0.503,3.291
				c0.402,6.353,1.124,28.338,1.719,48.047c-0.932,1.572-1.819,3.053-2.651,4.415V349z"/>
			<path style="fill:#423D80;" d="M398.497,282.25c0,0,11.427,48.203,9.059,71.449c-0.146-4.626-0.393-8.849-0.777-12.378
				c-2.404-22.259-11.847-53.541-13.346-58.423L398.497,282.25z"/>
			
				<linearGradient id="SVGID_00000042697689170709615580000013141073047857407368_" gradientUnits="userSpaceOnUse" x1="367.4645" y1="360.1562" x2="392.3846" y2="403.319">
				<stop  offset="0" style="stop-color:#56548B"/>
				<stop  offset="1" style="stop-color:#3F3A81"/>
			</linearGradient>
			<path style="fill:url(#SVGID_00000042697689170709615580000013141073047857407368_);" d="M386.787,349v51.759
				c-3.373,5.549-5.723,9.096-5.723,9.096c-6.819,0.704-12.816-5.028-14.846-7.231C371.914,391.105,384.264,364.815,386.787,349z"/>
			
				<linearGradient id="SVGID_00000106135784879083225240000014786291352128724402_" gradientUnits="userSpaceOnUse" x1="359.15" y1="276.8271" x2="433.6771" y2="405.9118">
				<stop  offset="0" style="stop-color:#56548B"/>
				<stop  offset="1" style="stop-color:#3F3A81"/>
			</linearGradient>
			<path style="fill:url(#SVGID_00000106135784879083225240000014786291352128724402_);" d="M393.433,282.899
				c1.499,4.882,10.942,36.163,13.346,58.423c0.384,3.529,0.631,7.752,0.777,12.378c0,0,0.009,0,0,0.009
				c0.859,27.113-1.783,68.314-1.783,68.314s-11.244,1.161-15.568,0.219c-0.183-6.49-0.457-15.906-0.768-25.898
				c-0.594-19.709-1.316-41.694-1.719-48.047c-0.064-0.996-0.238-2.093-0.503-3.291c-3.026-13.456-18.146-38.604-21.903-59.227
				c-0.503-2.788-0.951-6.125-1.335-9.882c-0.055-0.558-0.082-1.161-0.082-1.81c9.242,2.304,31.172,2.779,45.698-1.508
				c0.183,1.188,0.366,2.294,0.548,3.318h0.009c2.898,26.199,5.156,45.177,0.759,66.686c-0.704,3.428-1.865,7.194-3.355,11.116
				c2.368-23.247-9.059-71.449-9.059-71.449L393.433,282.899z"/>
			<path style="fill:#FFC7AE;" d="M409.467,217.872c-0.603,1.006-1.472,2.304-2.596,2.633c-0.046,0.018-0.101,0.037-0.155,0.046
				c-0.146,0.037-0.293,0.055-0.439,0.009c-0.219-0.082-0.338-0.32-0.357-0.558c-0.018-0.229,0.046-0.457,0.091-0.686
				c0.238-1.316-0.037-1.984-1.06-2.861c-0.137-0.119-0.302-0.229-0.475-0.201c0.073,1.911,0.64,3.821,0.256,5.64
				c-0.128,0.585-0.347,1.17-0.722,1.737c-1.307,1.984-3.254,3.026-3.254,3.026s-2.944,3.675-7.304,8.639
				c0,0.009-0.009,0.009-0.009,0.018c-1.536,1.746-3.254,3.657-5.073,5.631c-4.479-1.563-5.86-4.123-5.439-9.617l12.003-8.474
				c0.603-1.764,1.197-3.529,1.801-5.293c0.667-1.938,1.024-4.059,1.92-5.905c0.841-1.746,2.615-2.889,4.242-3.794
				c0.183-0.101,0.594-0.329,1.143-0.622c0.347-0.183,0.74-0.393,1.179-0.622c2.532-1.316,6.28-3.09,7.231-2.633
				c0.046,0.238,0.091,0.466,0.137,0.704c-0.594,1.591-4.598,5.119-4.598,5.119c0.384,1.234,1.134,2.176,1.746,3.492
				C410.592,215.157,410.619,215.934,409.467,217.872z"/>
			<path style="fill:#FFC7AE;" d="M435.63,193.108c0.037,0.027,0.073,0.046,0.101,0.082c1.042,0.832,3.245,4.132,3.547,6.015
				c0.293,1.947-1.07,8.995-2.358,11.802c-1.883,3.327-4.168,7.798-6.637,12.313c-2.797,0.868-7.039-1.627-7.405-5.786l-0.009-0.009
				c2.651-2.998,5.668-6.426,8.054-9.142c-0.027-0.832-0.21-2.331-0.164-3.702c0.027-0.978,0.155-1.883,0.548-2.395
				c0.987-1.28-4.854-0.676-5.613-1.975c-0.759-1.28,1.07-6.591,1.664-6.975C427.969,192.962,434.643,192.431,435.63,193.108z"/>
			<polygon style="fill:#F2B59E;" points="400.573,184.149 399.732,185.511 396.121,182.431 			"/>
			<path style="fill:#F2B59E;" d="M394.009,171.123c0.329,0.484,0.795,0.841,1.417,0.969c0,0-1.371,2.907-1.874,2.523
				c-0.503-0.375,0-2.989,0-2.989C393.799,171.37,393.963,171.178,394.009,171.123z"/>
			<path style="fill:#FFC7AE;" d="M416.598,172.375c-4.443,8.282-11.152,12.469-12.131,12.661c-0.585,0.119-1.682-0.155-2.569-0.43
				c-0.027-0.009-0.055-0.018-0.082-0.027c-0.329-0.128-0.667-0.247-1.015-0.347c-0.146-0.046-0.229-0.082-0.229-0.082l-4.452-1.719
				l3.611,3.081l-0.759,1.225l-0.037-0.027c-1.261,2.093-4.891,3.062-9.507,1.335c-4.818-1.801-4.818-5.11-4.818-5.11
				s0.329-0.658,0.85-1.673c0.923-1.847,2.45-4.882,3.638-7.304c0,0,1.709-0.137,2.688-0.768c0.603-0.384,1.316-1.088,1.764-1.563
				c0,0-0.503,2.614,0,2.989c0.503,0.384,1.874-2.523,1.874-2.523c-0.622-0.128-1.088-0.485-1.417-0.969
				c-1.106-1.655-0.512-4.827,1.746-5.722c2.925-1.17,3.172,2.038,3.172,2.038s-1.627,2.925-0.814,3.41s2.925-2.34,2.925-2.34
				c0.905-0.411,10.732-0.064,16.034-3.007c0,0,1.481,1.572,0.667,4.525C417.384,170.839,417,171.626,416.598,172.375z"/>
			<path style="fill:#A396E2;" d="M393.442,235.314c-3.592,6.417-22.15,28.448-27.753,26.702c0.137-1.527,0.219-2.989,0.192-4.342
				c3.199,0.037,7.13-1.764,11.463-5.695c3.757-3.401,7.578-7.313,11.025-11.034C390.188,238.97,391.907,237.06,393.442,235.314z"/>
			<path style="fill:#A396E2;" d="M378.377,234.546l-5.732,4.04l4.132-32.114c0,0,0.759,24.855,0.667,26.08
				C377.39,233.238,377.911,233.997,378.377,234.546z"/>
			<path style="fill:#9599DB;" d="M403.626,198.318c0,0,0.722,3.09,1.591,8.3c-0.439,0.229-0.832,0.439-1.179,0.622
				C403.836,203.163,403.699,200.046,403.626,198.318z"/>
			<path style="fill:#A396E2;" d="M406.871,220.505c0.612,9.461,1.033,20.778,7.66,21.912c-3.337,0.256-6.335-3.026-9.013-8.282
				c-0.302-4.269-0.567-8.41-0.786-12.24c0.384-1.819-0.183-3.73-0.256-5.64c0.174-0.027,0.338,0.082,0.475,0.201
				c1.024,0.878,1.298,1.545,1.06,2.861c-0.046,0.229-0.11,0.457-0.091,0.686c0.018,0.238,0.137,0.475,0.357,0.558
				c0.146,0.046,0.293,0.027,0.439-0.009C406.77,220.541,406.825,220.523,406.871,220.505z"/>
			
				<linearGradient id="SVGID_00000108296420634894196150000011877767477011685030_" gradientUnits="userSpaceOnUse" x1="362.3345" y1="188.5053" x2="410.5542" y2="272.0242">
				<stop  offset="0" style="stop-color:#B0B1F2"/>
				<stop  offset="1" style="stop-color:#B09BF2"/>
			</linearGradient>
			<path style="fill:url(#SVGID_00000108296420634894196150000011877767477011685030_);" d="M404.732,221.894
				c-0.128,0.585-0.347,1.17-0.722,1.737c-1.307,1.984-3.254,3.026-3.254,3.026s-2.943,3.675-7.304,8.639
				c0,0.009-0.009,0.009-0.009,0.018c-3.592,6.417-22.15,28.448-27.753,26.702c-0.503,5.457-1.773,7.674-1.792,12.071
				c9.242,2.304,31.172,2.779,45.698-1.508c-1.618-10.568-3.044-23.315-4.077-38.444
				C405.216,229.865,404.951,225.724,404.732,221.894z M422.878,217.534l-0.009-0.009c-3.446,3.922-6.271,7.139-6.271,7.139
				s-1.892-9.617-4.013-19.974c-0.594,1.591-4.598,5.119-4.598,5.119c0.384,1.234,1.134,2.176,1.746,3.492
				c0.859,1.856,0.887,2.633-0.265,4.571c-0.603,1.006-1.472,2.304-2.596,2.633c0.612,9.461,1.033,20.779,7.66,21.912
				c0.421-0.027,0.841-0.11,1.271-0.256c4.452-1.499,9.8-10.266,14.48-18.84C427.485,224.189,423.243,221.693,422.878,217.534z
				 M377.344,251.978c3.757-3.401,7.578-7.313,11.025-11.034c-4.479-1.563-5.86-4.123-5.439-9.617l12.003-8.474
				c0.603-1.764,1.197-3.529,1.801-5.293c0.667-1.938,1.024-4.059,1.92-5.905c0.841-1.746,2.614-2.889,4.241-3.794
				c0.183-0.101,0.594-0.329,1.143-0.622c-0.201-4.077-0.338-7.194-0.411-8.922c0,0,0.722,3.09,1.591,8.3
				c2.532-1.316,6.28-3.09,7.231-2.633c-0.1-0.484-0.201-0.96-0.302-1.444c-1.143-5.302-2.103-9.516-2.587-10.951
				c-1.124-3.382-3.903-5.567-7.661-6.984c-0.027-0.009-0.055-0.018-0.082-0.027c-0.43-0.128-0.795-0.265-1.015-0.347
				c-0.146-0.046-0.229-0.082-0.229-0.082l-0.841,1.362l-0.759,1.225l-0.037-0.028c-1.261,2.093-4.891,3.062-9.507,1.335
				c-4.818-1.801-4.818-5.11-4.818-5.11s0.329-0.658,0.85-1.673c-11.354-0.256-22.826,1.709-25.596,20.815v0.055
				c-0.265,3.483-2.413,31.702-2.413,42.224c0,8.419,3.263,13.264,8.428,13.319C369.081,257.71,373.011,255.909,377.344,251.978z
				 M376.778,206.473c0,0,0.759,24.855,0.667,26.08c-0.055,0.686,0.466,1.444,0.932,1.993l-5.732,4.04L376.778,206.473z"/>
		</g>
	</g>
	<g>
		
			<linearGradient id="SVGID_00000114036310284572754210000012524638956100230816_" gradientUnits="userSpaceOnUse" x1="147.0541" y1="74.7392" x2="170.8982" y2="116.0384">
			<stop  offset="0" style="stop-color:#868BEF"/>
			<stop  offset="0.9472" style="stop-color:#8677EF"/>
		</linearGradient>
		<circle style="fill:url(#SVGID_00000114036310284572754210000012524638956100230816_);" cx="158.976" cy="95.389" r="23.84"/>
		<g>
			
				<linearGradient id="SVGID_00000168833739707925994050000014721460671904900232_" gradientUnits="userSpaceOnUse" x1="363.5894" y1="104.5908" x2="387.4335" y2="145.89">
				<stop  offset="0" style="stop-color:#C5DEF1"/>
				<stop  offset="0.999" style="stop-color:#9AB6FB"/>
			</linearGradient>
			<circle style="fill:url(#SVGID_00000168833739707925994050000014721460671904900232_);" cx="375.512" cy="125.24" r="23.84"/>
			<path style="fill:#F8FAFB;" d="M391.817,123.944c0-6.361-7.3-11.518-16.305-11.518c-9.005,0-16.305,5.157-16.305,11.518
				c0,6.361,7.3,11.518,16.305,11.518c2.404,0,4.684-0.37,6.738-1.03l5.344,3.624l-2.443-4.823
				C389.192,131.135,391.817,127.756,391.817,123.944z M368.297,125.71c-1.146,0-2.075-0.929-2.075-2.075
				c0-1.146,0.929-2.075,2.075-2.075c1.146,0,2.075,0.929,2.075,2.075C370.372,124.781,369.443,125.71,368.297,125.71z
				 M375.512,125.71c-1.146,0-2.075-0.929-2.075-2.075c0-1.146,0.929-2.075,2.075-2.075c1.146,0,2.075,0.929,2.075,2.075
				C377.587,124.781,376.658,125.71,375.512,125.71z M382.727,125.71c-1.146,0-2.075-0.929-2.075-2.075
				c0-1.146,0.929-2.075,2.075-2.075c1.146,0,2.075,0.929,2.075,2.075C384.802,124.781,383.872,125.71,382.727,125.71z"/>
		</g>
		<g>
			
				<linearGradient id="SVGID_00000000935628684623248340000000682554605131706801_" gradientUnits="userSpaceOnUse" x1="107.3673" y1="217.9367" x2="131.2113" y2="259.2357">
				<stop  offset="0" style="stop-color:#DE697B"/>
				<stop  offset="1" style="stop-color:#BD2773"/>
			</linearGradient>
			<circle style="fill:url(#SVGID_00000000935628684623248340000000682554605131706801_);" cx="119.289" cy="238.586" r="23.84"/>
			<path style="fill:#F8FAFB;" d="M107.308,241.097c-3.031-3.031-3.031-7.963,0-10.994c1.468-1.468,3.42-2.277,5.497-2.277
				s4.029,0.808,5.497,2.277l0.988,0.988l0.988-0.988c1.468-1.468,3.42-2.277,5.497-2.277c2.076,0,4.029,0.808,5.497,2.277
				c3.031,3.031,3.031,7.963,0,10.994l-11.981,11.981L107.308,241.097z"/>
		</g>
		<g>
			
				<linearGradient id="SVGID_00000000903514172877237060000002831573877713650317_" gradientUnits="userSpaceOnUse" x1="331.0853" y1="67.9008" x2="344.2947" y2="90.7802">
				<stop  offset="0" style="stop-color:#B0B1F2"/>
				<stop  offset="1" style="stop-color:#B09BF2"/>
			</linearGradient>
			<circle style="fill:url(#SVGID_00000000903514172877237060000002831573877713650317_);" cx="337.69" cy="79.34" r="13.207"/>
			<path id="XMLID_72_" style="fill:#F8FAFB;" d="M343.742,83.21l-1.684-1.716c0,0-0.454-0.42-0.875-0.161l-0.939,1.004
				l-0.266,0.321c-0.467,0.532-1.765-0.602-1.765-0.602c-0.97-0.5-3.137-3.034-3.137-3.034c-1.067-1.233-0.467-1.765-0.467-1.765
				l0.301-0.301l1.032-0.999c0,0,0.569-0.334-0.967-1.634l-1.732-1.767c0,0-0.469-0.434-0.901-0.168l-0.966,1.034l-0.301,0.299
				c-0.733,1.102-0.399,2.969-0.399,2.969c1.265,4.767,6.734,8.368,6.734,8.368c4.601,2.799,5.968,0.966,5.968,0.966l0.298-0.254
				l1.004-0.97C344.68,84.799,345.231,84.473,343.742,83.21z"/>
		</g>
		<g>
			<path style="fill:#FFFFFF;" d="M153.339,80.366c-3.605,1.351-6.588,3.954-8.429,7.286h5.917
				C151.488,84.283,152.49,81.896,153.339,80.366z M166.776,95.986h-7.126v5.955h6.625
				C166.556,100.198,166.749,98.234,166.776,95.986z M150.14,95.986h-7.214c0.078,2.123,0.606,4.12,1.432,5.955h6.283
				C150.364,100.194,150.171,98.234,150.14,95.986z M150.628,88.84h-6.314c-0.823,1.828-1.3,3.839-1.378,5.955h7.201
				C150.164,92.557,150.35,90.587,150.628,88.84z M167.978,94.795h7.048c-0.085-2.116-0.579-4.123-1.402-5.955h-6.141
				C167.761,90.583,167.944,92.557,167.978,94.795z M173.029,87.652c-1.815-3.274-4.706-5.867-8.233-7.235
				c0.843,1.534,1.835,3.9,2.485,7.235H173.029z M163.326,79.926c-1.178-0.332-2.407-0.532-3.676-0.589v8.315h6.442
				C165.368,83.931,164.213,81.426,163.326,79.926z M166.288,88.84h-6.639v5.955h7.133C166.756,92.557,166.566,90.587,166.288,88.84
				z M152.019,87.652h6.439V79.34c-1.263,0.041-2.485,0.24-3.656,0.559C153.908,81.395,152.747,83.911,152.019,87.652z
				 M164.765,110.377c3.538-1.368,6.442-3.961,8.254-7.245h-5.745C166.617,106.501,165.615,108.861,164.765,110.377z
				 M159.65,103.133v8.287c1.252-0.058,2.471-0.23,3.636-0.552c0.894-1.473,2.051-3.991,2.783-7.736H159.65z M167.467,101.941h6.124
				c0.819-1.835,1.341-3.832,1.422-5.955h-7.042C167.941,98.234,167.744,100.194,167.467,101.941z M151.833,101.941h6.625v-5.955
				h-7.126C151.363,98.234,151.555,100.198,151.833,101.941z M154.843,110.895c1.161,0.308,2.367,0.508,3.616,0.545v-8.308h-6.415
				C152.777,106.901,153.946,109.426,154.843,110.895z M144.927,103.133c1.845,3.335,4.828,5.948,8.447,7.296
				c-0.853-1.513-1.872-3.893-2.536-7.296H144.927z M151.325,94.795h7.133V88.84h-6.635
				C151.542,90.587,151.356,92.557,151.325,94.795z"/>
		</g>
		<g>
			<path style="fill:#D7DFE2;" d="M417.984,149.081c-3.618,0-6.562-2.944-6.562-6.562c0-3.618,2.944-6.562,6.562-6.562
				c3.619,0,6.562,2.944,6.562,6.562C424.546,146.137,421.603,149.081,417.984,149.081z M417.984,137.456
				c-2.791,0-5.062,2.271-5.062,5.062s2.271,5.062,5.062,5.062c2.791,0,5.062-2.271,5.062-5.062S420.775,137.456,417.984,137.456z"
				/>
		</g>
		<g>
			<path style="fill:#D7DFE2;" d="M112.672,106.343h-8.805v-8.805h8.805V106.343z M105.367,104.843h5.805v-5.805h-5.805V104.843z"/>
		</g>
		<g>
			<path style="fill:#D7DFE2;" d="M305.765,72.359l-6.226-6.226l6.226-6.226l6.226,6.226L305.765,72.359z M301.66,66.133
				l4.105,4.105l4.105-4.104l-4.105-4.105L301.66,66.133z"/>
		</g>
		<g>
			<path style="fill:#D7DFE2;" d="M456.541,233.742h-8.805v-8.805h8.805V233.742z M449.236,232.242h5.805v-5.805h-5.805V232.242z"/>
		</g>
		<polygon style="fill:#D7DFE2;" points="53.797,213.29 53.797,208.047 50.887,208.047 50.887,213.29 45.642,213.29 45.642,216.201 
			50.887,216.201 50.887,221.446 53.797,221.446 53.797,216.201 59.041,216.201 59.041,213.29 		"/>
		<polygon style="fill:#D7DFE2;" points="436.907,257.674 440.615,253.966 438.557,251.908 434.849,255.616 431.14,251.907 
			429.082,253.965 432.79,257.674 429.082,261.383 431.14,263.441 434.849,259.732 438.557,263.44 440.615,261.382 		"/>
		<path style="fill:#D7DFE2;" d="M108.27,134.877c-2.56,0.001-4.635,2.074-4.635,4.635c0.001,2.561,2.075,4.634,4.635,4.635
			c2.56-0.001,4.634-2.074,4.635-4.635C112.904,136.951,110.83,134.877,108.27,134.877z M108.27,142.146
			c-1.455-0.003-2.633-1.18-2.635-2.635c0.003-1.455,1.18-2.632,2.635-2.635c1.455,0.003,2.632,1.18,2.635,2.635
			C110.902,140.967,109.725,142.143,108.27,142.146z"/>
		<g>
			<g>
				<rect x="97.688" y="102.633" style="fill:#D7DFE2;" width="2" height="1"/>
			</g>
			<g>
				<path style="fill:#D7DFE2;" d="M52.842,195.742h-1v-4.048h1V195.742z M52.842,188.657h-1v-4.048h1V188.657z M52.842,181.572h-1
					v-4.048h1V181.572z M52.842,174.488h-1v-4.049h1V174.488z M52.842,167.403h-1v-4.049h1V167.403z M52.842,160.318h-1v-4.049h1
					V160.318z M52.842,153.233h-1v-4.048h1V153.233z M52.842,146.148h-1V142.1h1V146.148z M52.842,139.063h-1v-4.048h1V139.063z
					 M52.842,131.978h-1v-4.048h1V131.978z M52.842,124.894h-1v-4.049h1V124.894z M52.842,117.809h-1v-4.049h1V117.809z
					 M52.844,110.737l-1-0.026c0.038-1.444,0.453-2.857,1.201-4.086l0.854,0.52C53.242,108.225,52.877,109.467,52.844,110.737z
					 M55.805,105.059l-0.595-0.804c1.161-0.859,2.531-1.4,3.961-1.566l0.115,0.993C58.029,103.828,56.825,104.304,55.805,105.059z
					 M94.651,103.633h-4.048v-1h4.048V103.633z M87.566,103.633h-4.048v-1h4.048V103.633z M80.481,103.633h-4.048v-1h4.048V103.633z
					 M73.396,103.633h-4.048v-1h4.048V103.633z M66.312,103.633h-4.049v-1h4.049V103.633z"/>
			</g>
			<g>
				<rect x="51.842" y="198.793" style="fill:#D7DFE2;" width="1" height="2"/>
			</g>
		</g>
		<g>
			<g>
				<rect x="186.276" y="94.295" style="fill:#D7DFE2;" width="2" height="1"/>
			</g>
			<g>
				<path style="fill:#D7DFE2;" d="M300.752,95.295h-4.017v-1h4.017V95.295z M293.723,95.295h-4.017v-1h4.017V95.295z
					 M286.693,95.295h-4.017v-1h4.017V95.295z M279.663,95.295h-4.017v-1h4.017V95.295z M272.633,95.295h-4.017v-1h4.017V95.295z
					 M265.603,95.295h-4.017v-1h4.017V95.295z M258.574,95.295h-4.017v-1h4.017V95.295z M251.544,95.295h-4.017v-1h4.017V95.295z
					 M244.514,95.295h-4.017v-1h4.017V95.295z M237.484,95.295h-4.017v-1h4.017V95.295z M230.455,95.295h-4.017v-1h4.017V95.295z
					 M223.425,95.295h-4.017v-1h4.017V95.295z M216.395,95.295h-4.017v-1h4.017V95.295z M209.365,95.295h-4.017v-1h4.017V95.295z
					 M202.335,95.295h-4.017v-1h4.017V95.295z M195.306,95.295h-4.017v-1h4.017V95.295z"/>
			</g>
			<g>
				<polygon style="fill:#D7DFE2;" points="306.265,95.295 303.765,95.295 303.765,94.295 305.265,94.295 305.265,92.795 
					306.265,92.795 				"/>
			</g>
			<g>
				<path style="fill:#D7DFE2;" d="M306.265,89.971h-1v-3.765h1V89.971z M306.265,83.382h-1v-3.765h1V83.382z"/>
			</g>
			<g>
				<rect x="305.265" y="74.793" style="fill:#D7DFE2;" width="1" height="2"/>
			</g>
		</g>
		<g>
			<g>
				<rect x="427.931" y="142.019" style="fill:#D7DFE2;" width="2" height="1"/>
			</g>
			<g>
				<path style="fill:#D7DFE2;" d="M452.638,217.598h-1v-3.892h1V217.598z M452.638,210.787h-1v-3.892h1V210.787z M452.638,203.977
					h-1v-3.892h1V203.977z M452.638,197.166h-1v-3.892h1V197.166z M452.638,190.356h-1v-3.892h1V190.356z M452.638,183.545h-1
					v-3.892h1V183.545z M452.638,176.735h-1v-3.892h1V176.735z M452.638,169.924h-1v-3.892h1V169.924z M452.638,163.114h-1v-3.892h1
					V163.114z M452.638,156.304h-1v-3.892h1V156.304z M452.638,149.493h-1v-2.447c0-0.433-0.068-0.857-0.202-1.263l0.949-0.314
					c0.168,0.506,0.253,1.037,0.253,1.576V149.493z M449.91,143.738c-0.677-0.471-1.472-0.72-2.299-0.72h-1.141v-1h1.141
					c1.033,0,2.025,0.311,2.87,0.899L449.91,143.738z M443.552,143.019h-3.892v-1h3.892V143.019z M436.741,143.019h-3.892v-1h3.892
					V143.019z"/>
			</g>
			<g>
				<rect x="451.638" y="220.529" style="fill:#D7DFE2;" width="1" height="2"/>
			</g>
		</g>
		<g>
			<g>
				<rect x="375.012" y="96.172" style="fill:#D7DFE2;" width="1" height="2"/>
			</g>
			<g>
				<path style="fill:#D7DFE2;" d="M376.012,93.069h-1v-4.138h1V93.069z M376.012,85.829h-1v-1.844c0-0.684-0.174-1.359-0.504-1.953
					l0.874-0.486c0.413,0.742,0.63,1.585,0.63,2.439V85.829z M372.476,80.242c-0.474-0.189-0.976-0.285-1.492-0.285h-2.42v-1h2.42
					c0.643,0,1.269,0.121,1.861,0.356L372.476,80.242z M365.461,79.957h-4.138v-1h4.138V79.957z"/>
			</g>
			<g>
				<rect x="356.207" y="78.957" style="fill:#D7DFE2;" width="2" height="1"/>
			</g>
		</g>
		<g>
			<g>
				<rect x="107.77" y="147.414" style="fill:#D7DFE2;" width="1" height="2"/>
			</g>
			<g>
				<path style="fill:#D7DFE2;" d="M108.77,165.033h-1v-4.462h1V165.033z M108.77,157.223h-1v-4.462h1V157.223z"/>
			</g>
			<g>
				<rect x="107.77" y="168.379" style="fill:#D7DFE2;" width="1" height="2"/>
			</g>
		</g>
		<g>
			<g>
				<rect x="425.931" y="257.174" style="fill:#D7DFE2;" width="2" height="1"/>
			</g>
			<g>
				<rect x="417" y="257.174" style="fill:#D7DFE2;" width="5.103" height="1"/>
			</g>
			<g>
				<rect x="411.172" y="257.174" style="fill:#D7DFE2;" width="2" height="1"/>
			</g>
		</g>
		<g>
			<g>
				<rect x="158.476" y="123" style="fill:#D7DFE2;" width="1" height="2"/>
			</g>
			<g>
				<path style="fill:#D7DFE2;" d="M154.452,240.952h-2.613v-1h2.613c0.432,0,0.856-0.068,1.261-0.202l0.314,0.95
					C155.52,240.868,154.99,240.952,154.452,240.952z M158.654,238.682l-0.836-0.549c0.43-0.655,0.658-1.418,0.658-2.206v-1.43h1
					v1.43C159.476,236.911,159.192,237.863,158.654,238.682z M159.476,231.456h-1v-4.055h1V231.456z M159.476,224.359h-1v-4.056h1
					V224.359z M159.476,217.262h-1v-4.056h1V217.262z M159.476,210.165h-1v-4.056h1V210.165z M159.476,203.068h-1v-4.056h1V203.068z
					 M159.476,195.971h-1v-4.055h1V195.971z M159.476,188.874h-1v-4.055h1V188.874z M159.476,181.776h-1v-4.055h1V181.776z
					 M159.476,174.68h-1v-4.056h1V174.68z M159.476,167.583h-1v-4.056h1V167.583z M159.476,160.485h-1v-4.056h1V160.485z
					 M159.476,153.388h-1v-4.055h1V153.388z M159.476,146.291h-1v-4.055h1V146.291z M159.476,139.194h-1v-4.055h1V139.194z
					 M159.476,132.097h-1v-4.056h1V132.097z"/>
			</g>
			<g>
				<rect x="146.784" y="239.952" style="fill:#D7DFE2;" width="2" height="1"/>
			</g>
		</g>
	</g>
</g>
</svg>
