<?xml version="1.0" encoding="utf-8"?>
<!-- Generator: Adobe Illustrator 27.5.0, SVG Export Plug-In . SVG Version: 6.00 Build 0)  -->
<svg version="1.1" xmlns="http://www.w3.org/2000/svg" xmlns:xlink="http://www.w3.org/1999/xlink" x="0px" y="0px"
	 viewBox="0 0 2500 2500" style="enable-background:new 0 0 2500 2500;" xml:space="preserve">
<g id="Background">
	<rect style="fill:rgba(0,0,0,0);" width="2500" height="2500"/>
</g>
<g id="Illustration">
	<g id="Selfie_1_">
		<circle style="fill:rgba(0,0,0,0);" cx="1250" cy="1250" r="915"/>
		<path style="fill:#E6D0BE;" d="M565.151,963.141c48.762-156.753,194.961-270.566,367.764-270.566l0,0h0.011
			c111.782,0,212.138,47.924,282.475,123.997c70.339-76.073,170.696-123.997,282.475-123.997l0,0h0.01
			c172.79,0,319.003,113.812,367.754,270.566c11.247,36.174,17.316,74.632,17.316,114.51c0,212.667-251.483,573.678-667.554,730.851
			c-416.079-157.173-667.551-518.184-667.551-730.851C547.85,1037.774,553.902,999.315,565.151,963.141z"/>
		<g>
			<g>
				
					<rect x="402.991" y="451.465" transform="matrix(0.9559 -0.2937 0.2937 0.9559 -150.5164 207.9658)" style="fill:#FFFFFF;" width="428.565" height="307.483"/>
				<g>
					<polygon style="fill:#EFBC73;" points="891.674,768.715 482.007,894.575 455.484,808.242 644.751,708.769 865.151,682.382 
											"/>
					<path style="fill:#363E44;" d="M480.445,785.073c0,0-56.534-140.938,92.089-198.226c0,0-70.133,110.89,34.995,208.585
						L480.445,785.073z"/>
					<g>
						<path style="fill:#363E44;" d="M565.312,498.422c13.953-16.996,32.667-21.127,45.826-19.911
							c37.401,3.457,70.006,39.83,79.08,94.642c-51.943,17.037-103.884,34.073-155.827,51.11
							c-17.613-30.998-31.429-64.446-20.829-91.501C527.257,497.808,561.851,499.648,565.312,498.422z"/>
						<path style="fill:#84524D;" d="M654.505,765.118L654.505,765.118c22.34-5.271,36.177-27.655,30.906-49.995l-25.624-108.593
							l-80.901,19.089l25.624,108.593C609.781,756.552,632.165,770.389,654.505,765.118z"/>
						<path style="fill:#84524D;" d="M541.142,614.771c14.164,42.893,55.238,67.892,91.743,55.838
							c36.504-12.054,54.615-56.597,40.451-99.49c-14.164-42.893-54.192-64.488-90.697-52.434
							C546.135,530.739,526.979,571.878,541.142,614.771z"/>
						<path style="fill:#84524D;" d="M657.914,561.332c-4.143,15.093,2.911,30.188,15.756,33.714
							c12.846,3.526,26.618-5.85,30.762-20.944c4.143-15.094-2.911-30.188-15.756-33.714
							C675.83,536.862,662.057,546.239,657.914,561.332z"/>
						<path style="fill:#84524D;" d="M548.522,597.454c12.317,9.658,15.638,25.985,7.419,36.467
							c-8.219,10.482-24.867,11.151-37.184,1.493c-12.317-9.658-15.638-25.985-7.419-36.467
							C519.557,588.465,536.206,587.796,548.522,597.454z"/>
						<path style="fill:#363E44;" d="M613.988,675.852c-8.198,0-16.495-1.593-24.62-4.771c-1.134-0.443-1.693-1.722-1.25-2.857
							c0.444-1.133,1.721-1.697,2.856-1.251c13.741,5.379,27.996,5.91,41.22,1.544c13.486-4.455,24.769-13.612,32.628-26.486
							c0.636-1.04,1.993-1.367,3.031-0.732c1.04,0.635,1.367,1.992,0.733,3.032c-8.411,13.776-20.517,23.588-35.009,28.372
							C627.214,674.803,620.634,675.852,613.988,675.852z"/>
						<path style="fill:#363E44;" d="M550.357,636.899c-0.742,0-1.466-0.375-1.882-1.053c-2.803-4.575-5.251-9.454-7.276-14.495
							c-0.454-1.13,0.094-2.414,1.224-2.868c1.13-0.45,2.414,0.095,2.867,1.223c1.934,4.815,4.27,9.47,6.944,13.836
							c0.636,1.038,0.31,2.396-0.728,3.032C551.148,636.794,550.75,636.899,550.357,636.899z"/>
						<path style="fill:#363E44;" d="M677.762,594.441c-1.126,0-2.088-0.859-2.193-2.002c-0.544-5.87-1.674-11.767-3.36-17.527
							c-0.342-1.169,0.327-2.394,1.495-2.737c1.167-0.344,2.394,0.329,2.736,1.496c1.767,6.031,2.951,12.211,3.519,18.362
							c0.112,1.212-0.779,2.287-1.992,2.399C677.899,594.439,677.83,594.441,677.762,594.441z"/>
						<path style="fill:#363E44;" d="M612.014,620.824c-0.206,0-0.416-0.028-0.622-0.09c-3.37-0.988-5.547-2.631-6.471-4.881
							c-0.842-2.05-0.369-3.867,0.046-5.473c0.333-1.281,0.647-2.491,0.398-3.977c-0.227-1.363-0.885-2.691-1.954-3.947
							c-0.789-0.928-0.677-2.319,0.251-3.109c0.928-0.79,2.319-0.676,3.108,0.25c1.593,1.873,2.584,3.919,2.944,6.078
							c0.403,2.414-0.086,4.298-0.479,5.813c-0.341,1.313-0.506,2.03-0.236,2.689c0.486,1.182,2.245,1.918,3.635,2.328
							c1.169,0.342,1.838,1.568,1.494,2.737C613.846,620.201,612.967,620.824,612.014,620.824z"/>
						<path style="fill:#363E44;" d="M626.422,632.175c-0.948,0-1.825-0.616-2.111-1.572c-0.35-1.167,0.312-2.394,1.479-2.745
							c2.071-0.62,5.973-2.252,8.83-6.192c1.491-2.056,2.5-4.498,2.917-7.056c0.196-1.201,1.332-2.015,2.531-1.821
							c1.201,0.196,2.016,1.331,1.82,2.532c-0.528,3.234-1.806,6.322-3.699,8.933c-3.618,4.991-8.529,7.047-11.134,7.829
							C626.845,632.145,626.631,632.175,626.422,632.175z"/>
						<g>
							<g>
								<path style="fill:#FFFFFF;" d="M651.164,566.131c0,0.002,0.001,0.002,0.001,0.004l-0.179,0.035
									c0.019,0.39-0.081,0.925-0.467,1.031c-0.29,0.683-0.229,1.624-0.359,2.296c-0.233,1.21-2.095,0.771-1.862-0.437
									c0.157-0.814-1.911,1.288-2.87,2.04c-3.057,2.401-6.21,4.659-9.439,6.822c-1.506,1.009-3.01,2.031-4.551,2.987
									c-1.235,0.766-5.241,3.53-5.657,3.43c-3.248,5.533-4.541,10.215-4.541,10.215s7.374,0.883,15.894-1.252
									c-0.011-0.12-0.019-0.239-0.034-0.359c-0.152-1.184,17.779-11.697,18.564-11c6.578-7.731,9.025-16.537,9.025-16.537
									S658.638,564.68,651.164,566.131z"/>
								<path style="fill:#363E44;" d="M637.348,571.606c-5.268,3.534-9.013,8.388-11.559,12.722
									c1.555,3.488,4.349,6.435,8.124,8.085c0.972,0.425,1.964,0.74,2.962,0.959c3.848-0.939,7.943-2.489,11.709-5.015
									c2.724-1.827,5.021-4.012,6.976-6.291c1.6-5.8-0.25-11.933-4.574-15.895C646.604,567.038,641.753,568.651,637.348,571.606z"
									/>
							</g>
							<g>
								<path style="fill:#FFFFFF;" d="M556.794,596.611c0,0,0.001,0.002,0.002,0.004l0.168-0.072
									c0.203,0.333,0.587,0.719,0.966,0.59c0.623,0.401,1.103,1.214,1.588,1.697c0.873,0.87,2.166-0.54,1.294-1.408
									c-0.587-0.584,2.305-0.01,3.521,0.073c3.878,0.266,7.755,0.361,11.641,0.333c1.813-0.013,3.631-0.013,5.443-0.089
									c1.452-0.061,6.319-0.028,6.607-0.345c5.797,2.749,9.499,5.894,9.499,5.894s-5.601,4.877-13.847,7.902
									c-0.058-0.105-0.119-0.208-0.173-0.316c-0.541-1.065-21.279,0.324-21.537,1.343c-9.787-2.694-16.762-8.6-16.762-8.6
									S549.798,599.615,556.794,596.611z"/>
								<path style="fill:#363E44;" d="M571.298,593.369c6.344-0.04,12.17,1.868,16.713,4.02c0.675,3.758,0.022,7.767-2.172,11.254
									c-0.565,0.898-1.208,1.716-1.91,2.459c-3.71,1.387-7.968,2.409-12.503,2.437c-3.28,0.021-6.408-0.495-9.306-1.28
									c-4.584-3.897-6.504-10.008-5.156-15.716C561.075,594.797,565.994,593.403,571.298,593.369z"/>
							</g>
						</g>
					</g>
				</g>
				<g>
					
						<rect x="488.539" y="829.241" transform="matrix(0.9559 -0.2937 0.2937 0.9559 -228.5216 245.3685)" style="fill:#FFFFFF;" width="428.565" height="108.851"/>
				</g>
				<path style="fill:#D87355;" d="M659.773,877.18c0.207-8.867,6.113-16.949,15.091-19.513l0,0l0.001,0
					c5.807-1.659,11.732-0.658,16.515,2.25c2.525-4.996,7.028-8.975,12.835-10.633l0,0l0,0c8.977-2.564,18.261,1.179,23.12,8.599
					c1.121,1.712,2.007,3.62,2.599,5.692c3.156,11.048-4.552,33.535-23.834,47.874c-23.948-1.991-42.369-17.014-45.525-28.062
					C659.981,881.314,659.725,879.226,659.773,877.18z"/>
			</g>
			<path style="fill:#D3BBA3;" d="M524.292,1034.415c-0.942,0-1.815-0.609-2.107-1.557L356.986,495.147
				c-0.171-0.56-0.114-1.165,0.159-1.682c0.274-0.515,0.742-0.902,1.302-1.074l432.149-132.767c0.555-0.17,1.162-0.114,1.68,0.159
				c0.517,0.273,0.903,0.743,1.076,1.301l165.199,537.713c0.171,0.56,0.114,1.165-0.159,1.682c-0.275,0.515-0.742,0.902-1.302,1.075
				L524.94,1034.318C524.724,1034.385,524.507,1034.415,524.292,1034.415z M361.849,495.959l163.904,533.495l427.934-131.469
				L789.783,364.488L361.849,495.959z"/>
		</g>
		<g>
			<g>
				<path style="fill:#FFFFFF;" d="M1487.874,1995.454c-7.803,14.155-16.604,33.692-22.19,58.036
					c-8.649,37.691-5.666,69.792-2.156,89.675c88.342,0,176.685,0,265.027,0c-1.834-11.825-4.868-22.341-8.535-31.638
					c-35.008-88.763-147.046-115.587-172.476-121.082C1527.654,1992.115,1507.764,1993.785,1487.874,1995.454z"/>
				<path style="fill:#84524D;" d="M1456.139,1905.859l20.172,93.54c4.454,18.86,22.668,31.635,41.768,28.362
					c1.093-0.187,2.205-0.414,3.334-0.685c17.685-4.24,29.583-20.858,28.249-38.995l-8.728-91.528L1456.139,1905.859z"/>
				<path style="fill:#E6D0BE;" d="M958.87,1967.677c0,0-44.194,85.341-36.297,175.489c59.274,0,118.547,0,177.821,0
					c-4.635-19.431-11.714-42.084-22.759-66.346c-18.929-41.579-42.543-72.587-61.697-93.777L958.87,1967.677z"/>
				<path style="fill:#84524D;" d="M950.93,1988.257c-1.262-31.151-1.106-88.623,13.074-134.875l103.383,30.522
					c0,0-33.923,51.579-44.648,109.187c-3.243,17.418-18.721,30.021-36.39,28.709c-2.317-0.172-4.732-0.471-7.238-0.923
					C963.257,2018.018,951.582,2004.354,950.93,1988.257z"/>
				<path style="fill:#8B865C;" d="M1130.134,1057.077c0,0-194.238,303.343-196.658,888.447h141.846
					c0,0,170.096-505.603,282.117-631.662l-41.437-282.202L1130.134,1057.077z"/>
				<path style="fill:#8B865C;" d="M1219.319,1376.839c0,0,179.565,295.946,221.165,568.685h132.339
					c0,0,15.577-661.958-225.784-929.574l-121.559,25.927L1219.319,1376.839z"/>
				<path style="fill:#363E44;" d="M1278.529,1431.299c-0.308,0-0.622-0.065-0.919-0.202c-1.107-0.508-1.591-1.82-1.081-2.924
					l75.205-163.307c0.508-1.107,1.822-1.593,2.924-1.081c1.107,0.508,1.591,1.819,1.081,2.924l-75.205,163.307
					C1280.161,1430.823,1279.365,1431.299,1278.529,1431.299z"/>
			</g>
			<g>
				<path style="fill:#84524D;" d="M1253.872,813.116c0,0,341.134-8.484,425.512-160.458l9.517-59.52
					c0,0,70.126,71.952,57.452,155.568c-18.554,122.414-262.018,187.696-386.505,199.954L1253.872,813.116z"/>
				<path style="fill:#EFBC73;" d="M1061.955,1155.149c76.736-48.236,237.333-140.345,350.814-144.56
					c0,0,12.976-99.884-99.779-190.052c0,0-130.264-82.976-302.249-8.52c0,0-119.374,199.1-62.208,311.98
					C969.674,1165.74,1022.341,1180.051,1061.955,1155.149z"/>
				<g>
					<g>
						<path style="fill:#84524D;" d="M1014.13,810.104c0,55.872,2.709,103.385,7.428,184.094
							c5.421,92.708,7.898,137.812-26.471,151.536C804.997,1221.64,855.604,893.727,1014.13,810.104z"/>
					</g>
					<g>
						<path style="fill:#84524D;" d="M977.234,1002.706c0,0,114.144-46.473,176.387-66.839
							c65.369-21.388,164.995-43.449,167.901-29.472c1.656,7.961-11.31,13.779-46.997,27.025c2.474,1.135,8.991,5.787,9.316,13.422
							c0.481,11.3-8.417,14.833-9.088,15.463c0.87,0.317,10.149,3.989,11.751,11.498c1.805,8.459-1.928,14.967-7.467,18.891
							c2.134,0.853,9.689,4.8,11.017,12.063c1.365,7.471-2.633,16.261-10.2,18.613c-13.882,4.315-55.382,16.351-74.865,24.67
							c-38.339,16.37-166.685,92.777-228.35,101.79C986.946,1096.885,977.234,1002.706,977.234,1002.706z"/>
						<g>
							<path style="fill:#363E44;" d="M1262.346,1022.79c-1.051,0-1.981-0.751-2.168-1.821l-2.14-12.101
								c-0.213-1.199,0.588-2.343,1.787-2.554c1.191-0.22,2.343,0.588,2.554,1.787l2.14,12.101c0.213,1.199-0.588,2.343-1.787,2.554
								C1262.602,1022.779,1262.473,1022.79,1262.346,1022.79z"/>
							<path style="fill:#363E44;" d="M1256.649,993.701c-1.079,0-2.022-0.792-2.179-1.891l-1.985-13.75
								c-0.174-1.204,0.661-2.323,1.867-2.496c1.197-0.196,2.323,0.661,2.496,1.867l1.985,13.75
								c0.174,1.204-0.661,2.323-1.867,2.495C1256.86,993.694,1256.752,993.701,1256.649,993.701z"/>
							<path style="fill:#363E44;" d="M1252.762,962.737c-1.049,0-1.979-0.749-2.168-1.819c-0.404-2.267-0.753-4.317-1.1-6.367
								c-0.346-2.03-0.69-4.061-1.089-6.306c-0.213-1.197,0.586-2.343,1.784-2.556c1.209-0.211,2.346,0.583,2.557,1.785
								c0.403,2.256,0.749,4.298,1.096,6.339c0.347,2.039,0.693,4.078,1.094,6.335c0.213,1.197-0.586,2.343-1.785,2.556
								C1253.021,962.726,1252.89,962.737,1252.762,962.737z"/>
							<path style="fill:#363E44;" d="M1247.117,937.599c-0.985,0-1.882-0.663-2.136-1.662l-3.006-11.823
								c-0.3-1.18,0.413-2.379,1.593-2.679c1.183-0.31,2.379,0.411,2.681,1.593l3.006,11.823c0.3,1.18-0.413,2.379-1.593,2.679
								C1247.48,937.577,1247.297,937.599,1247.117,937.599z"/>
						</g>
					</g>
				</g>
				<g>
					<g>
						<polygon style="fill:#D87355;" points="1684.4,742.882 1575.778,776.401 1595.699,586.71 1704.321,553.192 						"/>
						<path style="fill:#EFBC73;" d="M1626.514,599.346c1.251,4.055-1.021,8.356-5.076,9.607c-4.054,1.251-8.356-1.022-9.607-5.076
							c-1.251-4.055,1.021-8.356,5.076-9.607C1620.962,593.019,1625.263,595.292,1626.514,599.346z"/>
					</g>
					<g>
						<path style="fill:#84524D;" d="M1719.345,611.286c3.394,10.998,5.218,20.201-13.831,26.079
							c-19.049,5.878-51.759,6.206-55.152-4.792c-3.394-10.998,23.813-29.159,42.862-35.037
							C1712.272,591.658,1715.951,600.288,1719.345,611.286z"/>
						<path style="fill:#84524D;" d="M1649.276,664.961c-3.394-10.999,23.813-29.159,42.862-35.037
							c19.049-5.878,22.728,2.752,26.122,13.75L1649.276,664.961z"/>
						<path style="fill:#84524D;" d="M1718.26,643.674c3.394,10.999,5.218,20.201-13.831,26.079
							c-19.049,5.878-51.758,6.207-55.152-4.792L1718.26,643.674z"/>
						<path style="fill:#84524D;" d="M1648.191,697.348c-3.394-10.998,23.813-29.159,42.862-35.037
							c19.049-5.878,22.728,2.752,26.122,13.75L1648.191,697.348z"/>
						<path style="fill:#84524D;" d="M1717.175,676.061c3.394,10.998,5.218,20.201-13.831,26.079
							c-19.049,5.878-51.759,6.207-55.152-4.792L1717.175,676.061z"/>
						<path style="fill:#84524D;" d="M1659.995,721.284c-2.698-8.742,18.928-23.178,34.07-27.851
							c15.142-4.672,18.066,2.187,20.764,10.93L1659.995,721.284z"/>
						<path style="fill:#84524D;" d="M1714.829,704.364c2.698,8.743,4.148,16.057-10.994,20.73
							c-15.142,4.672-41.142,4.933-43.84-3.809L1714.829,704.364z"/>
					</g>
				</g>
			</g>
			<g>
				<path style="fill:#84524D;" d="M1168.982,822.051L1168.982,822.051c17.771,3.079,34.673-8.831,37.752-26.602l14.967-86.382
					l-64.354-11.15l-14.967,86.382C1139.302,802.07,1151.212,818.972,1168.982,822.051z"/>
				
					<ellipse transform="matrix(0.7071 -0.7071 0.7071 0.7071 -130.2631 1027.2218)" style="fill:#363E44;" cx="1174.835" cy="670.852" rx="73.36" ry="73.36"/>
				<g>
					<path style="fill:#84524D;" d="M1274.083,733.897c-8.327,15.583-57.136,8.883-57.136,8.883l-42.565-33.194
						c-11.091-22.244-2.049-49.267,20.195-60.357c22.244-11.09,49.267-2.048,60.357,20.195
						C1254.934,669.425,1282.564,718.026,1274.083,733.897z"/>
					<path style="fill:#84524D;" d="M1255.586,682.323c0,0,17.198,6.204,18.155,9.628c1.142,4.087-10.307,12.637-10.307,12.637
						S1255.901,682.202,1255.586,682.323z"/>
					<g>
						<path style="fill:#FFFFFF;" d="M1218.379,698.721c0,0,4.935-6.989,13.063-11.041c1.729-0.862,5.367,14.603,3.334,14.638
							C1225.841,702.472,1218.379,698.721,1218.379,698.721z"/>
						<g>
							<defs>
								<path id="SVGID_1_" d="M1218.379,698.721c0,0,7.258-10.279,18.669-13.133c11.41-2.854,22.653,2.797,22.653,2.797
									s-7.258,10.278-18.668,13.133C1229.622,704.372,1218.379,698.721,1218.379,698.721z"/>
							</defs>
							<clipPath id="SVGID_00000127029916939673930340000001653062075446876338_">
								<use xlink:href="#SVGID_1_"  style="overflow:visible;"/>
							</clipPath>
							<path style="clip-path:url(#SVGID_00000127029916939673930340000001653062075446876338_);fill:#363E44;" d="
								M1231.609,687.153c2.696-8.056,11.412-12.402,19.468-9.706c8.056,2.696,12.402,11.412,9.707,19.468
								c-2.696,8.056-11.412,12.402-19.468,9.706C1233.259,703.926,1228.913,695.21,1231.609,687.153z"/>
						</g>
					</g>
					<path style="fill:#363E44;" d="M1254.128,719.399c-0.314,0-0.633-0.017-0.95-0.052c-3.197-0.366-5.967-2.567-7.059-5.607
						c-0.411-1.148,0.185-2.409,1.331-2.821c1.147-0.411,2.409,0.183,2.821,1.331c0.529,1.473,1.865,2.539,3.405,2.715
						c1.585,0.183,3.165-0.605,3.996-2c0.624-1.044,1.979-1.391,3.023-0.767c1.046,0.622,1.389,1.977,0.766,3.023
						C1259.911,717.827,1257.103,719.399,1254.128,719.399z"/>
				</g>
				<path style="fill:#363E44;" d="M1142.309,717.769c0,0,63.243,2.79,103.234-60.452c39.992-63.242-69.753-59.522-115.324-38.131
					C1101.03,632.886,1142.309,717.769,1142.309,717.769z"/>
				<path style="fill:#363E44;" d="M976.748,806.052c0,0-9.498-151.557,149.593-159.36c0,0-101.363,83.312-32.164,209.04
					L976.748,806.052z"/>
				<path style="fill:#84524D;" d="M1209.153,701.429c3.589,15.235-4.011,30.061-16.977,33.116
					c-12.966,3.055-26.386-6.819-29.975-22.054c-3.59-15.235,4.011-30.061,16.977-33.116
					C1192.143,676.321,1205.564,686.195,1209.153,701.429z"/>
			</g>
		</g>
		<g>
			<g>
				
					<rect x="1667.569" y="939.179" transform="matrix(0.9817 0.1906 -0.1906 0.9817 242.7661 -338.596)" style="fill:#FFFFFF;" width="428.565" height="307.483"/>
				<g>
					<polygon style="fill:#EFBC73;" points="2047.064,1366.298 1626.353,1284.627 1643.564,1195.967 1857.376,1197.233 
						2064.275,1277.639 					"/>
					<path style="fill:#363E44;" d="M1676.491,1187.265c0,0,16.419-150.964,174.519-131.594c0,0-114.057,64.857-67.251,200.523
						L1676.491,1187.265z"/>
					<g>
						<path style="fill:#363E44;" d="M1886.238,974.245c20.308-8.433,38.765-3.274,49.805,3.99
							c31.377,20.646,28.475,65.539,10.696,118.175c-53.85-9.403-93.139-16.264-146.989-25.667
							c-0.959-35.64,2.586-71.655,24.668-90.542C1852.946,955.801,1882.607,973.699,1886.238,974.245z"/>
						<path style="fill:#84524D;" d="M1839.473,1251.545L1839.473,1251.545c22.194,5.859,44.934-7.383,50.793-29.577l28.478-107.88
							l-80.37-21.216l-28.478,107.88C1804.038,1222.946,1817.28,1245.687,1839.473,1251.545z"/>
						<path style="fill:#84524D;" d="M1810.172,1065.544c-7.681,44.513,16.802,85.897,54.686,92.434
							c37.883,6.537,74.821-24.248,82.502-68.761c7.681-44.513-17.481-82.401-55.364-88.938
							C1854.112,993.741,1817.853,1021.031,1810.172,1065.544z"/>
						<path style="fill:#84524D;" d="M1824.831,1053.735c6.325,14.317,1.575,30.287-10.61,35.67
							c-12.185,5.383-27.189-1.86-33.514-16.177c-6.325-14.317-1.575-30.287,10.61-35.67
							C1803.502,1032.175,1818.507,1039.418,1824.831,1053.735z"/>
						<path style="fill:#363E44;" d="M1875.111,1161.063c-3.544,0-7.092-0.302-10.628-0.913
							c-14.749-2.545-27.974-10.232-38.246-22.229c-0.792-0.926-0.685-2.317,0.241-3.109c0.924-0.788,2.315-0.687,3.109,0.241
							c9.596,11.207,21.921,18.384,35.645,20.752c13.997,2.416,28.262-0.357,41.252-8.021c1.044-0.618,2.399-0.271,3.019,0.78
							c0.618,1.049,0.269,2.401-0.779,3.019C1898.09,1157.854,1886.637,1161.063,1875.111,1161.063z"/>
						<path style="fill:#363E44;" d="M1808.926,1089.662c-1.158,0-2.13-0.902-2.198-2.073c-0.321-5.344-0.185-10.8,0.401-16.213
							c0.131-1.212,1.234-2.095,2.429-1.955c1.21,0.131,2.086,1.219,1.955,2.429c-0.56,5.17-0.689,10.376-0.383,15.477
							c0.073,1.214-0.853,2.259-2.069,2.332C1809.014,1089.66,1808.971,1089.662,1808.926,1089.662z"/>
						<path style="fill:#363E44;" d="M1898.103,1109.856c-0.721,0-1.43-0.353-1.852-1.003c-0.663-1.023-0.372-2.388,0.648-3.051
							c1.217-0.788,2.692-1.996,2.819-3.271c0.071-0.708-0.293-1.348-0.995-2.511c-0.81-1.339-1.817-3.006-2.121-5.432
							c-0.273-2.177,0.093-4.42,1.085-6.668c0.495-1.113,1.791-1.613,2.909-1.126c1.113,0.493,1.617,1.796,1.126,2.909
							c-0.667,1.505-0.917,2.965-0.745,4.339c0.187,1.494,0.833,2.564,1.518,3.697c0.859,1.419,1.832,3.027,1.61,5.232
							c-0.241,2.42-1.858,4.616-4.804,6.53C1898.93,1109.742,1898.514,1109.856,1898.103,1109.856z"/>
						<g>
							<g>
								<path style="fill:#FFFFFF;" d="M1950.206,1070.122c-0.001,0.001,0,0.002-0.001,0.004l-0.177-0.042
									c-0.144,0.363-0.457,0.809-0.851,0.746c-0.546,0.502-0.881,1.383-1.277,1.942c-0.713,1.005-2.226-0.165-1.514-1.168
									c0.479-0.676-2.273,0.381-3.457,0.67c-3.776,0.921-7.581,1.672-11.416,2.305c-1.788,0.295-3.581,0.603-5.379,0.836
									c-1.441,0.187-6.232,1.045-6.569,0.781c-5.246,3.693-8.361,7.421-8.361,7.421s6.348,3.855,14.988,5.438
									c0.04-0.114,0.082-0.225,0.117-0.341c0.352-1.141,21.026-3.291,21.452-2.331c9.188-4.316,15.06-11.32,15.06-11.32
									S1957.61,1071.894,1950.206,1070.122z"/>
								<path style="fill:#363E44;" d="M1935.362,1069.388c-6.259,1.037-11.677,3.906-15.788,6.798
									c-0.027,3.819,1.296,7.658,4.05,10.722c0.709,0.789,1.482,1.486,2.3,2.099c3.892,0.737,8.261,1.021,12.735,0.28
									c3.236-0.536,6.232-1.575,8.954-2.84c3.857-4.618,4.711-10.967,2.414-16.363
									C1945.679,1069.06,1940.595,1068.521,1935.362,1069.388z"/>
							</g>
							<g>
								<path style="fill:#FFFFFF;" d="M1854.854,1058.03c0,0-0.001,0.002-0.001,0.004l0.18,0.03
									c-0.008,0.39,0.109,0.922,0.497,1.017c0.31,0.674,0.277,1.616,0.428,2.285c0.269,1.203,2.117,0.708,1.848-0.492
									c-0.181-0.809,1.949,1.23,2.93,1.954c3.127,2.308,6.346,4.471,9.638,6.537c1.535,0.964,3.069,1.941,4.638,2.85
									c1.257,0.729,5.344,3.372,5.757,3.26c3.412,5.433,4.843,10.075,4.843,10.075s-7.344,1.102-15.925-0.777
									c0.007-0.12,0.012-0.239,0.024-0.36c0.116-1.188-18.12-11.162-18.885-10.441c-6.806-7.531-9.515-16.261-9.515-16.261
									S1847.34,1056.803,1854.854,1058.03z"/>
								<path style="fill:#363E44;" d="M1868.827,1063.09c5.371,3.375,9.26,8.115,11.934,12.372c-1.45,3.532-4.156,6.562-7.88,8.323
									c-0.959,0.454-1.941,0.798-2.932,1.047c-3.874-0.824-8.014-2.251-11.854-4.664c-2.777-1.745-5.139-3.861-7.16-6.08
									c-1.772-5.75-0.106-11.935,4.097-16.025C1859.439,1058.8,1864.337,1060.268,1868.827,1063.09z"/>
							</g>
						</g>
						<path style="fill:#363E44;" d="M1900.604,1132.11c-1.36,3.219-7.395,3.745-13.48,1.174s-9.916-7.263-8.556-10.482
							c1.36-3.219,7.395-3.745,13.48-1.174S1901.964,1128.891,1900.604,1132.11z"/>
					</g>
				</g>
				<g>
					
						<rect x="1612.054" y="1324.461" transform="matrix(0.9817 0.1906 -0.1906 0.9817 296.2453 -322.7757)" style="fill:#FFFFFF;" width="428.565" height="108.851"/>
				</g>
				<path style="fill:#D87355;" d="M1791.401,1352.91c4.354-7.727,13.368-12.08,22.496-10.12l0,0l0.001,0
					c5.905,1.268,10.662,4.938,13.514,9.755c4.579-3.22,10.424-4.613,16.328-3.345l0,0l0,0c9.127,1.961,15.56,9.631,16.356,18.465
					c0.184,2.038,0.068,4.139-0.385,6.245c-2.413,11.234-19.793,27.45-43.555,31.032c-20.195-13.023-29.383-34.946-26.97-46.18
					C1789.64,1356.656,1790.396,1354.693,1791.401,1352.91z"/>
				<g>
					<path style="fill:#84524D;" d="M2015.209,1360.11c5.009-37.808,10.893-61.278,19.618-89.896
						c13.74-30.554,37.994-81.734,31.553-86.126c-8.869-6.047-33.131,32.5-38.825,37.375c4.518-12.366,46.783-63.844,30.762-71.733
						c-9.873-4.861-33.674,34.685-41.827,48.439c8.938-16.242,29.455-62.826,20.257-67.049
						c-14.141-6.491-36.307,50.066-40.781,54.967c-0.193-1.134-2.271-12.23-12.771-17.349c-9.925-4.841-19.285-0.395-21.515,0.666
						c-7.028,3.339-18.642,11.323-16.038,17.51c3.805,9.041,21.486-5.168,26.319,1.555c5.988,8.33-6.354,32.59-14.764,30.326
						c-8.37-2.254-3.023-28.725-13.209-31.772c-6.523-1.951-10.262,7.525-12.004,16.596c-3.928,20.458,13.765,37.266,16.894,58.702
						c1.662,11.388-12.595,48.543-24.255,80.003C1924.621,1342.322,2013.937,1359.689,2015.209,1360.11z M2013.912,1202.477
						c-0.101,0.158-0.172,0.26-0.203,0.289C2013.774,1202.679,2013.844,1202.577,2013.912,1202.477z"/>
					<path style="fill:#363E44;" d="M1987.693,1262.357c-0.006,0-0.013,0-0.019,0c-1.216-0.011-2.196-1.005-2.185-2.224
						c0.03-3.443-0.601-10.191-5.155-16.687c-5.335-7.614-12.96-10.352-15.991-11.177c-1.176-0.319-1.869-1.531-1.548-2.706
						c0.321-1.176,1.537-1.871,2.707-1.548c4.339,1.18,12.503,4.427,18.444,12.899c5.26,7.504,5.988,15.285,5.953,19.258
						C1989.887,1261.382,1988.903,1262.357,1987.693,1262.357z"/>
				</g>
			</g>
			<path style="fill:#D3BBA3;" d="M2042.714,1514.331c-0.14,0-0.28-0.013-0.422-0.041l-443.8-86.154
				c-0.575-0.112-1.081-0.446-1.408-0.93c-0.327-0.484-0.448-1.081-0.336-1.654l107.201-552.206
				c0.233-1.195,1.395-1.979,2.584-1.744l443.797,86.154c1.195,0.232,1.977,1.389,1.744,2.584l-107.199,552.206
				C2044.672,1513.599,2043.75,1514.331,2042.714,1514.331z M1601.496,1424.228l439.472,85.314l106.359-547.878l-439.469-85.314
				L1601.496,1424.228z"/>
		</g>
		<g>
			<g>
				<polygon style="fill:#FFFFFF;" points="843.134,1768.037 415.287,1792.82 392.698,1389.401 820.546,1364.618 				"/>
				<g>
					<path style="fill:#EFBC73;" d="M843.144,1754.595l-185.513,10.738l-123.602,7.166l-74.787,4.321
						c0,0,9.282-42.883,43.832-81.313c18.036-20.086,42.971-38.959,77.103-49.851c11.399-3.66,23.856-6.416,37.394-8.026
						c55.098-6.57,220.349,26.788,220.349,26.788L843.144,1754.595z"/>
				</g>
				<g>
					
						<rect x="418.074" y="1766.885" transform="matrix(0.9983 -0.0578 0.0578 0.9983 -104.2631 39.6152)" style="fill:#FFFFFF;" width="428.565" height="108.851"/>
				</g>
				<path style="fill:#D87355;" d="M592.087,1804.769c2.311-8.563,9.97-15.008,19.3-15.363l0,0h0.001
					c6.035-0.229,11.552,2.152,15.505,6.114c3.641-4.252,8.961-7.045,14.996-7.275l0,0h0.001c9.329-0.355,17.457,5.49,20.411,13.852
					c0.682,1.93,1.088,3.994,1.17,6.147c0.437,11.482-12.399,31.489-34.54,40.829c-22.787-7.631-37.105-26.605-37.542-38.087
					C591.306,1808.834,591.554,1806.745,592.087,1804.769z"/>
				<g>
					<path style="fill:#84524D;" d="M634.833,1680.718L634.833,1680.718c19.601,3.396,38.244-9.74,41.64-29.341l16.508-95.278
						L622,1543.8l-16.508,95.278C602.096,1658.679,615.232,1677.322,634.833,1680.718z"/>
					
						<ellipse transform="matrix(0.9871 -0.1602 0.1602 0.9871 -234.2271 122.272)" style="fill:#363E44;" cx="641.289" cy="1513.948" rx="80.915" ry="80.915"/>
					<g>
						<path style="fill:#84524D;" d="M750.758,1583.485c-9.184,17.188-63.021,9.798-63.021,9.798l-46.948-36.612
							c-12.233-24.535-2.26-54.34,22.275-66.573c24.535-12.233,54.341-2.259,66.573,22.275
							C729.637,1512.373,760.112,1565.979,750.758,1583.485z"/>
						<path style="fill:#84524D;" d="M730.356,1526.6c0,0,18.969,6.842,20.025,10.62c1.26,4.509-11.369,13.938-11.369,13.938
							S730.703,1526.466,730.356,1526.6z"/>
						<g>
							<path style="fill:#FFFFFF;" d="M689.317,1544.687c0,0,5.443-7.708,14.408-12.178c1.908-0.951,5.919,16.107,3.678,16.146
								C697.547,1548.824,689.317,1544.687,689.317,1544.687z"/>
							<g>
								<defs>
									<path id="SVGID_00000058571731635018866170000014683344961164437380_" d="M689.317,1544.687
										c0,0,8.005-11.337,20.591-14.485c12.586-3.148,24.986,3.085,24.986,3.085s-8.005,11.337-20.591,14.485
										C701.717,1550.92,689.317,1544.687,689.317,1544.687z"/>
								</defs>
								<clipPath id="SVGID_00000161614127644253475060000015698073202770772355_">
									<use xlink:href="#SVGID_00000058571731635018866170000014683344961164437380_"  style="overflow:visible;"/>
								</clipPath>
								<path style="clip-path:url(#SVGID_00000161614127644253475060000015698073202770772355_);fill:#363E44;" d="
									M703.909,1531.928c2.973-8.886,12.587-13.679,21.473-10.706c8.886,2.973,13.679,12.587,10.706,21.473
									c-2.973,8.886-12.587,13.679-21.473,10.706C705.729,1550.427,700.936,1540.814,703.909,1531.928z"/>
							</g>
						</g>
						<path style="fill:#363E44;" d="M728.75,1567.266c-0.34,0-0.682-0.017-1.026-0.058c-3.438-0.387-6.42-2.756-7.596-6.031
							c-0.411-1.146,0.184-2.409,1.331-2.821c1.146-0.411,2.407,0.183,2.821,1.331c0.612,1.705,2.16,2.939,3.941,3.139
							c1.858,0.228,3.67-0.698,4.633-2.313c0.622-1.049,1.973-1.391,3.023-0.766c1.047,0.622,1.389,1.977,0.767,3.023
							C734.972,1565.574,731.951,1567.266,728.75,1567.266z"/>
					</g>
					<path style="fill:#363E44;" d="M605.413,1565.697c0,0,69.756,3.078,113.866-66.678c44.11-69.755-76.936-65.652-127.201-42.058
						C559.883,1472.072,605.413,1565.697,605.413,1565.697z"/>
					<path style="fill:#363E44;" d="M422.801,1663.071c0,0-10.476-167.165,164.999-175.772c0,0-111.802,91.892-35.476,230.568
						L422.801,1663.071z"/>
					<path style="fill:#84524D;" d="M679.141,1547.674c3.959,16.804-4.425,33.157-18.726,36.526
						c-14.301,3.37-29.104-7.521-33.063-24.325c-3.959-16.804,4.425-33.157,18.726-36.526
						C660.379,1519.98,675.182,1530.87,679.141,1547.674z"/>
				</g>
				<g>
					<path style="fill:#84524D;" d="M657.631,1765.333l-123.602,7.166c-10.252-23.416-21.078-49.718-30.956-76.992
						c-13.957-38.54-26.083-79.065-32.19-116.216c-4.078-24.827-6.989-57.325,12.171-78.734
						c15.699-17.529,44.626-29.325,52.409-19.623c3.551,4.431,2.888,7.783,2.448,10.23c7.694-0.728,12.876,0.684,15.477,4.277
						c1.72,2.337,2.558,6.923,1.611,11.091c0.705-0.155,8.025-1.125,12.589,4.475c3.726,4.586,2.403,12.082,2.359,12.81
						c19.425,7.893,22.732,19.072,21.343,21.541c-2.867,5.071-20.152-5.115-32.037,2.558c-13.692,8.885-6.659,32.565-5.975,39.268
						c1.235,11.773,11.906,33.116,26.899,58.472C602.114,1682.784,633.312,1728.534,657.631,1765.333z"/>
					<g>
						<path style="fill:#363E44;" d="M543.148,1534.017c-0.645,0-1.284-0.282-1.72-0.825c-0.762-0.95-0.61-2.336,0.339-3.098
							c4.228-3.396,9.004-5.816,14.197-7.192c4.121-1.094,8.377-1.488,12.642-1.167c1.214,0.09,2.125,1.148,2.035,2.362
							c-0.09,1.214-1.148,2.11-2.362,2.035c-3.776-0.28-7.54,0.069-11.184,1.033c-4.595,1.217-8.823,3.359-12.567,6.365
							C544.12,1533.858,543.632,1534.017,543.148,1534.017z"/>
						<path style="fill:#363E44;" d="M529.389,1516.336c-0.645,0-1.284-0.282-1.72-0.825c-0.762-0.95-0.61-2.336,0.339-3.098
							c4.224-3.393,9-5.813,14.196-7.192c4.12-1.094,8.372-1.486,12.642-1.167c1.214,0.09,2.125,1.148,2.035,2.362
							c-0.09,1.212-1.155,2.123-2.362,2.035c-3.777-0.278-7.54,0.067-11.184,1.033c-4.596,1.219-8.824,3.361-12.566,6.365
							C530.361,1516.176,529.873,1516.336,529.389,1516.336z"/>
						<path style="fill:#363E44;" d="M512.061,1503.591c-0.585,0-1.168-0.23-1.601-0.689c-0.838-0.885-0.799-2.28,0.085-3.118
							c3.878-3.671,8.572-6.546,13.572-8.311c4.019-1.423,8.227-2.157,12.506-2.183c0.004,0,0.009,0,0.013,0
							c1.212,0,2.197,0.977,2.205,2.192c0.008,1.216-0.974,2.211-2.192,2.218c-3.785,0.024-7.508,0.672-11.063,1.929
							c-4.424,1.565-8.577,4.108-12.01,7.359C513.15,1503.391,512.605,1503.591,512.061,1503.591z"/>
					</g>
				</g>
			</g>
			<path style="fill:#D3BBA3;" d="M423.613,1925.321c-0.539,0-1.062-0.198-1.466-0.558c-0.437-0.39-0.701-0.937-0.735-1.52
				l-32.529-561.574c-0.07-1.214,0.858-2.259,2.075-2.328l451.328-26.144c0.578-0.028,1.157,0.166,1.593,0.553
				c0.437,0.39,0.701,0.937,0.735,1.52l32.529,561.574c0.07,1.214-0.858,2.259-2.075,2.328l-451.328,26.143
				C423.698,1925.319,423.655,1925.321,423.613,1925.321z M393.413,1363.615l32.273,557.173l446.926-25.889l-32.273-557.173
				L393.413,1363.615z"/>
		</g>
		<g>
			<g>
				<circle style="fill:#FFFFFF;" cx="1940.233" cy="554.776" r="120.66"/>
				<path style="fill:#D3BBA3;" d="M1951.167,677.641c-67.749,0-122.865-55.116-122.865-122.865
					c0-67.749,55.116-122.865,122.865-122.865s122.865,55.116,122.865,122.865C2074.032,622.525,2018.916,677.641,1951.167,677.641z
					 M1951.167,436.321c-65.316,0-118.455,53.14-118.455,118.455s53.14,118.455,118.455,118.455s118.455-53.14,118.455-118.455
					S2016.483,436.321,1951.167,436.321z"/>
				<path style="fill:#D87355;" d="M1879.57,530.375c4.549-14.624,18.188-25.242,34.31-25.242l0,0h0.001
					c10.428,0,19.791,4.471,26.353,11.568c6.562-7.097,15.925-11.568,26.353-11.568l0,0h0.001c16.12,0,29.76,10.618,34.308,25.242
					c1.049,3.375,1.615,6.963,1.615,10.683c0,19.84-23.461,53.52-62.278,68.183c-38.817-14.663-62.277-48.343-62.277-68.183
					C1877.956,537.338,1878.52,533.75,1879.57,530.375z"/>
			</g>
			<g>
				
					<ellipse transform="matrix(0.7071 -0.7071 0.7071 0.7071 -710.8176 701.7493)" style="fill:#FFFFFF;" cx="491.678" cy="1208.907" rx="103.867" ry="103.867"/>
				<path style="fill:#D3BBA3;" d="M501.09,1314.978c-58.488,0-106.071-47.582-106.071-106.07s47.583-106.073,106.071-106.073
					s106.071,47.584,106.071,106.073S559.578,1314.978,501.09,1314.978z M501.09,1107.245c-56.056,0-101.662,45.606-101.662,101.663
					c0,56.055,45.606,101.661,101.662,101.661s101.662-45.606,101.662-101.661C602.752,1152.85,557.146,1107.245,501.09,1107.245z"
					/>
				<path style="fill:#D87355;" d="M439.457,1187.903c3.916-12.589,15.657-21.729,29.534-21.729l0,0h0.001
					c8.977,0,17.036,3.849,22.685,9.958c5.649-6.109,13.708-9.958,22.685-9.958l0,0h0.001c13.876,0,25.618,9.14,29.534,21.729
					c0.903,2.905,1.391,5.994,1.391,9.196c0,17.079-20.196,46.071-53.61,58.693c-33.414-12.622-53.61-41.614-53.61-58.693
					C438.068,1193.896,438.554,1190.808,439.457,1187.903z"/>
			</g>
			<g>
				<circle style="fill:#FFFFFF;" cx="1766.68" cy="1666.719" r="120.66"/>
				<path style="fill:#D3BBA3;" d="M1777.615,1789.585c-67.749,0-122.865-55.116-122.865-122.865
					c0-67.749,55.116-122.865,122.865-122.865s122.865,55.116,122.865,122.865
					C1900.48,1734.469,1845.364,1789.585,1777.615,1789.585z M1777.615,1548.265c-65.316,0-118.455,53.14-118.455,118.455
					c0,65.316,53.14,118.455,118.455,118.455s118.455-53.14,118.455-118.455C1896.07,1601.404,1842.931,1548.265,1777.615,1548.265z
					"/>
				<g>
					<path style="fill:#D87355;" d="M1805.264,1721.473h-65.823c-6.012,0-10.886-4.874-10.886-10.886v-56.958
						c0-11.238,9.11-20.349,20.349-20.349h60.954c12.481,0,22.599,10.118,22.599,22.599v38.401
						C1832.457,1709.298,1820.282,1721.473,1805.264,1721.473z"/>
					<path style="fill:#D87355;" d="M1757.034,1662.034l-14.969-0.731l-8.182-20.491c5.512-6.615,10.73-29.679,9.144-41.347
						c-0.467-3.44,2.18-6.511,5.652-6.511l0,0c12.177,0,22.048,9.872,22.048,22.049
						C1769.946,1633.695,1762.268,1651.212,1757.034,1662.034z"/>
					<rect x="1701.823" y="1646.876" style="fill:#D87355;" width="15.429" height="67.706"/>
				</g>
			</g>
			<g>
				<circle style="fill:#FFFFFF;" cx="1404.748" cy="478.313" r="93.535"/>
				<path style="fill:#D3BBA3;" d="M1413.223,574.053c-52.791,0-95.74-42.949-95.74-95.74s42.949-95.74,95.74-95.74
					c52.793,0,95.742,42.949,95.742,95.74S1466.016,574.053,1413.223,574.053z M1413.223,386.984c-50.36,0-91.33,40.97-91.33,91.33
					s40.97,91.33,91.33,91.33s91.332-40.97,91.332-91.33S1463.583,386.984,1413.223,386.984z"/>
				<path style="fill:#D87355;" d="M1357.721,459.398c3.526-11.336,14.1-19.567,26.597-19.567l0,0h0.001
					c8.084,0,15.342,3.466,20.429,8.967c5.087-5.502,12.345-8.967,20.429-8.967l0,0h0.001c12.496,0,23.07,8.231,26.596,19.567
					c0.813,2.616,1.252,5.397,1.252,8.281c0,15.38-18.187,41.488-48.277,52.855c-30.091-11.367-48.277-37.475-48.277-52.855
					C1356.47,464.795,1356.908,462.014,1357.721,459.398z"/>
			</g>
		</g>
	</g>
</g>
</svg>
