<?xml version="1.0" encoding="utf-8"?>
<!-- Generator: Adobe Illustrator 27.5.0, SVG Export Plug-In . SVG Version: 6.00 Build 0)  -->
<svg version="1.1" xmlns="http://www.w3.org/2000/svg" xmlns:xlink="http://www.w3.org/1999/xlink" x="0px" y="0px"
	 viewBox="0 0 500 500" style="enable-background:new 0 0 500 500;" xml:space="preserve">
<g id="BACKGROUND">
	<rect style="fill: rgba(0,0,0,0);" width="500" height="500"/>
</g>
<g id="OBJECTS">
	<g>
		<g>
			<path style="fill:#EFD5CA;" d="M253.26,143.633c0,0-42.569-56.986-94.184-52.624s-58.137,64.655-24.943,116.088
				c33.194,51.433-46.782,111.719,19.424,145.053c66.207,33.335,131.853-35.477,196.802-41.215
				c64.948-5.737,65.749-67.14,46.878-95.545C378.366,186.987,274.443,173.178,253.26,143.633z"/>
			<g>
				<path style="fill:#EFD5CA;" d="M104.394,143.599c-0.002,0-0.004,0-0.006,0c-0.68-0.003-1.229-0.557-1.225-1.237
					c0.052-10.715,2.266-20.414,6.577-28.825c3.455-6.741,8.255-12.667,14.264-17.613c10.221-8.412,20.279-11.037,20.702-11.145
					c0.659-0.167,1.329,0.231,1.497,0.89c0.168,0.659-0.231,1.329-0.89,1.497c-0.126,0.033-10.037,2.641-19.823,10.725
					c-13.09,10.813-19.773,25.779-19.865,44.484C105.622,143.052,105.071,143.599,104.394,143.599z"/>
			</g>
			<g>
				<path style="fill:#EFD5CA;" d="M415.201,267.847c-0.078,0-0.158-0.008-0.237-0.023c-0.667-0.13-1.103-0.777-0.973-1.444
					c0.043-0.223,4.213-22.636-6.749-46.373c-5.69-12.32-16.068-20.327-23.772-24.875c-8.375-4.944-15.448-6.968-15.518-6.988
					c-0.654-0.185-1.035-0.865-0.851-1.519c0.185-0.655,0.866-1.035,1.52-0.851c0.3,0.085,7.454,2.133,16.101,7.238
					c8.006,4.726,18.8,13.066,24.756,25.963c5.909,12.795,7.481,25.111,7.76,33.189c0.302,8.77-0.783,14.45-0.829,14.688
					C416.293,267.439,415.778,267.847,415.201,267.847z"/>
			</g>
		</g>
		<path style="fill:#EFD5CA;" d="M44.675,276.622c0,0,3.287-11.23,10.408-10.408c7.121,0.822,8.217,4.108,14.242,1.643
			c6.026-2.465,8.217-10.408,18.077-8.491c9.86,1.917,10.956,12.873,22.185,12.051c11.23-0.822,15.064-1.096,19.172,5.204H44.675
			L44.675,276.622z"/>
		<path style="fill:#EFD5CA;" d="M175.094,76.417c0,0,4.505-9.961,16.806-6.992c12.162,2.936,17.4-14.482,28.229-13.362
			c10.829,1.12,6.947,11.121,20.763,13.362s17.816-3.211,23.635,6.992H175.094z"/>
		<path style="fill:#EFD5CA;" d="M329.37,353.575c0,0,4.505-9.961,16.806-6.992c12.162,2.936,17.4-14.482,28.229-13.362
			c10.829,1.12,6.947,11.121,20.764,13.362c13.816,2.241,17.815-3.211,23.635,6.992H329.37z"/>
	</g>
	<g>
		<g>
			<g>
				<g>
					<path style="fill:#FF4B61;" d="M82.699,217.8c-0.718,0-1.334-0.491-1.496-1.193c-0.59-2.548-1.402-3.361-3.951-3.95
						c-0.702-0.163-1.193-0.778-1.193-1.496c0-0.718,0.491-1.334,1.193-1.496c2.549-0.59,3.361-1.402,3.951-3.95
						c0.163-0.703,0.778-1.193,1.496-1.193c0.718,0,1.334,0.491,1.496,1.193c0.59,2.548,1.402,3.361,3.951,3.95
						c0.702,0.163,1.193,0.778,1.193,1.496c0,0.718-0.491,1.334-1.193,1.496l0,0c-2.549,0.59-3.361,1.402-3.95,3.95
						C84.033,217.309,83.418,217.8,82.699,217.8z M78.681,211.16c2.184,0.695,3.323,1.834,4.018,4.018
						c0.695-2.184,1.834-3.323,4.018-4.018c-2.184-0.695-3.323-1.834-4.018-4.018C82.004,209.327,80.866,210.465,78.681,211.16z
						 M87.941,211.77h0.002H87.941z"/>
				</g>
			</g>
			<g>
				<g>
					<path style="fill:#FFB109;" d="M103.907,230.598c-2.608,0-4.73-2.122-4.73-4.73s2.122-4.73,4.73-4.73
						c2.608,0,4.73,2.122,4.73,4.73S106.515,230.598,103.907,230.598z M103.907,222.958c-1.605,0-2.91,1.306-2.91,2.91
						s1.306,2.91,2.91,2.91c1.605,0,2.91-1.305,2.91-2.91S105.511,222.958,103.907,222.958z"/>
				</g>
			</g>
			<g>
				<g>
					<path style="fill:#259BFF;" d="M106.817,196.869c-0.502,0-0.91-0.407-0.91-0.91v-2.409c0-0.502,0.407-0.91,0.91-0.91
						c0.502,0,0.91,0.407,0.91,0.91v2.409C107.727,196.462,107.319,196.869,106.817,196.869z"/>
				</g>
				<g>
					<path style="fill:#259BFF;" d="M106.817,203.306c-0.502,0-0.91-0.407-0.91-0.91v-2.409c0-0.502,0.407-0.91,0.91-0.91
						c0.502,0,0.91,0.407,0.91,0.91v2.409C107.727,202.899,107.319,203.306,106.817,203.306z"/>
				</g>
				<g>
					<g>
						<path style="fill:#259BFF;" d="M104.916,198.676h-2.409c-0.502,0-0.91-0.407-0.91-0.91c0-0.502,0.407-0.91,0.91-0.91h2.409
							c0.503,0,0.91,0.407,0.91,0.91C105.825,198.269,105.418,198.676,104.916,198.676z"/>
					</g>
					<g>
						<g>
							<path style="fill:#259BFF;" d="M111.127,198.676h-2.409c-0.502,0-0.91-0.407-0.91-0.91c0-0.502,0.407-0.91,0.91-0.91h2.409
								c0.503,0,0.91,0.407,0.91,0.91C112.037,198.269,111.63,198.676,111.127,198.676z"/>
						</g>
					</g>
				</g>
			</g>
			<g>
				<g>
					<path style="fill:#9C5BFF;" d="M82.577,239.166c-0.503,0-0.91-0.407-0.91-0.91v-2.409c0-0.502,0.407-0.91,0.91-0.91
						c0.502,0,0.91,0.407,0.91,0.91v2.409C83.486,238.759,83.079,239.166,82.577,239.166z"/>
				</g>
				<g>
					<g>
						<g>
							<path style="fill:#9C5BFF;" d="M82.577,245.604c-0.503,0-0.91-0.407-0.91-0.91v-2.409c0-0.502,0.407-0.91,0.91-0.91
								c0.502,0,0.91,0.407,0.91,0.91v2.409C83.486,245.196,83.079,245.604,82.577,245.604z"/>
						</g>
					</g>
				</g>
				<g>
					<g>
						<g>
							<g>
								<path style="fill:#9C5BFF;" d="M80.676,240.973h-2.409c-0.502,0-0.91-0.407-0.91-0.91c0-0.502,0.407-0.91,0.91-0.91h2.409
									c0.502,0,0.91,0.407,0.91,0.91C81.585,240.566,81.178,240.973,80.676,240.973z"/>
							</g>
						</g>
						<g>
							<g>
								<path style="fill:#9C5BFF;" d="M86.887,240.973h-2.409c-0.502,0-0.91-0.407-0.91-0.91c0-0.502,0.407-0.91,0.91-0.91h2.409
									c0.502,0,0.91,0.407,0.91,0.91C87.797,240.566,87.389,240.973,86.887,240.973z"/>
							</g>
						</g>
					</g>
				</g>
			</g>
		</g>
		<g>
			<g>
				<path style="fill:#FF4B61;" d="M412.593,301.108c-0.718,0-1.334-0.491-1.496-1.193c-0.59-2.548-1.402-3.361-3.951-3.95
					c-0.703-0.163-1.193-0.778-1.193-1.496c0-0.718,0.491-1.334,1.193-1.496c2.548-0.59,3.361-1.402,3.951-3.95
					c0.163-0.702,0.778-1.193,1.496-1.193c0.718,0,1.334,0.491,1.496,1.193c0.59,2.548,1.402,3.361,3.951,3.95
					c0.702,0.163,1.193,0.778,1.193,1.496c0,0.718-0.491,1.334-1.193,1.496l0,0c-2.549,0.59-3.361,1.402-3.95,3.95
					C413.926,300.617,413.311,301.108,412.593,301.108z M408.575,294.468c2.184,0.695,3.323,1.833,4.018,4.018
					c0.695-2.184,1.833-3.323,4.018-4.018c-2.184-0.695-3.323-1.834-4.018-4.018C411.898,292.635,410.759,293.773,408.575,294.468z
					 M417.834,295.078h0.002H417.834z"/>
			</g>
			<g>
				<path style="fill:#FFB109;" d="M433.8,313.906c-2.608,0-4.73-2.122-4.73-4.73c0-2.608,2.122-4.73,4.73-4.73
					c2.608,0,4.73,2.122,4.73,4.73C438.53,311.784,436.408,313.906,433.8,313.906z M433.8,306.266c-1.605,0-2.91,1.305-2.91,2.91
					c0,1.605,1.306,2.91,2.91,2.91c1.605,0,2.91-1.305,2.91-2.91C436.71,307.572,435.405,306.266,433.8,306.266z"/>
			</g>
			<g>
				<g>
					<path style="fill:#259BFF;" d="M436.71,280.177c-0.502,0-0.91-0.407-0.91-0.91v-2.409c0-0.502,0.407-0.91,0.91-0.91
						c0.502,0,0.91,0.407,0.91,0.91v2.409C437.62,279.77,437.213,280.177,436.71,280.177z"/>
				</g>
				<g>
					<path style="fill:#259BFF;" d="M436.71,286.614c-0.502,0-0.91-0.407-0.91-0.91v-2.409c0-0.502,0.407-0.91,0.91-0.91
						c0.502,0,0.91,0.407,0.91,0.91v2.409C437.62,286.207,437.213,286.614,436.71,286.614z"/>
				</g>
				<g>
					<g>
						<path style="fill:#259BFF;" d="M434.809,281.984H432.4c-0.502,0-0.91-0.408-0.91-0.91c0-0.502,0.407-0.91,0.91-0.91h2.409
							c0.502,0,0.91,0.407,0.91,0.91C435.719,281.577,435.311,281.984,434.809,281.984z"/>
					</g>
					<g>
						<path style="fill:#259BFF;" d="M441.02,281.984h-2.409c-0.502,0-0.91-0.408-0.91-0.91c0-0.502,0.407-0.91,0.91-0.91h2.409
							c0.503,0,0.91,0.407,0.91,0.91C441.93,281.577,441.523,281.984,441.02,281.984z"/>
					</g>
				</g>
			</g>
			<g>
				<g>
					<path style="fill:#9C5BFF;" d="M412.47,322.474c-0.503,0-0.91-0.407-0.91-0.91v-2.409c0-0.502,0.407-0.91,0.91-0.91
						c0.502,0,0.91,0.407,0.91,0.91v2.409C413.38,322.067,412.972,322.474,412.47,322.474z"/>
				</g>
				<g>
					<g>
						<g>
							<path style="fill:#9C5BFF;" d="M412.47,328.912c-0.503,0-0.91-0.407-0.91-0.91v-2.409c0-0.502,0.407-0.91,0.91-0.91
								c0.502,0,0.91,0.407,0.91,0.91v2.409C413.38,328.504,412.972,328.912,412.47,328.912z"/>
						</g>
					</g>
				</g>
				<g>
					<g>
						<g>
							<g>
								<path style="fill:#9C5BFF;" d="M410.569,324.281h-2.41c-0.502,0-0.91-0.407-0.91-0.91c0-0.502,0.407-0.91,0.91-0.91h2.41
									c0.502,0,0.91,0.407,0.91,0.91C411.479,323.874,411.071,324.281,410.569,324.281z"/>
							</g>
						</g>
						<g>
							<g>
								<path style="fill:#9C5BFF;" d="M416.78,324.281h-2.409c-0.503,0-0.91-0.407-0.91-0.91c0-0.502,0.407-0.91,0.91-0.91h2.409
									c0.502,0,0.91,0.407,0.91,0.91C417.69,323.874,417.283,324.281,416.78,324.281z"/>
							</g>
						</g>
					</g>
				</g>
			</g>
		</g>
	</g>
	<g>
		<g>
			<ellipse style="fill:#EFD5CA;" cx="244.156" cy="456.598" rx="184.272" ry="9.997"/>
		</g>
		<g>
			<g>
				<g>
					<g>
						<path style="fill:#FFB109;" d="M176.107,437.622l43.817,12.195c2.463,0.686,5.016-0.756,5.701-3.219l8.464-30.412
							c0.686-2.463-0.756-5.016-3.219-5.702l-43.817-12.195c-2.463-0.686-5.016,0.756-5.701,3.219l-8.464,30.413
							C172.203,434.384,173.644,436.936,176.107,437.622z"/>
					</g>
					<g>
						<g>
							<g>
								<g>
									<g>
										<path style="fill:#FFFFFF;" d="M191.617,423.199c0.163,0.458,0.346,0.893,0.533,1.304
											c0.045,0.098,0.091,0.195,0.139,0.294c1.267,2.604,3.615,5.369,6.04,8.255c0.101,0.12,0.202,0.241,0.303,0.361
											c0.534,0.636,1.07,1.278,1.597,1.925c4.667-1.603,9.498-2.886,12.583-4.931c1.692-1.121,3.573-2.725,4.286-5.354
											c0.535-1.97,0.521-3.76-0.528-5.604c-0.952-1.673-2.538-2.29-4.061-2.724c-0.053-0.015-0.106-0.033-0.161-0.044
											c-0.198-0.043-0.391-0.081-0.581-0.113c-1.497-0.255-2.821-0.143-5.01,1.086l-1.828,1.234l-0.9-2.014
											c-0.572-1.181-1.304-2.11-2.257-2.798c-0.001,0-0.001,0-0.001-0.001c-0.574-0.414-1.228-0.741-1.976-0.981
											c-0.053-0.017-0.107-0.032-0.16-0.047c-1.523-0.436-3.215-0.707-4.887,0.168c-1.88,0.984-2.822,2.524-3.409,4.479
											C190.731,419.723,191.049,421.598,191.617,423.199z"/>
									</g>
								</g>
							</g>
						</g>
					</g>
				</g>
				<g>
					<path style="fill:#FFB109;" d="M201.995,444.827l-11.966,11.429c-0.516,0.493-1.369,0.093-1.321-0.619l0.973-14.237
						L201.995,444.827z"/>
				</g>
			</g>
			<g>
				<g>
					<g>
						<path style="fill:#9C5BFF;" d="M294.346,433.973l-48.1,29.419c-2.181,1.334-5.031,0.647-6.365-1.534l-20.714-33.866
							c-1.334-2.181-0.647-5.031,1.534-6.365l48.1-29.419c2.181-1.334,5.031-0.647,6.365,1.534l20.714,33.866
							C297.214,429.789,296.527,432.638,294.346,433.973z"/>
					</g>
					<g>
						<g>
							<g>
								<g>
									<g>
										<path style="fill:#FFFFFF;" d="M270.935,422.916c-0.037,0.582-0.105,1.144-0.187,1.68
											c-0.02,0.127-0.041,0.255-0.064,0.384c-0.606,3.419-2.405,7.379-4.254,11.504c-0.077,0.172-0.154,0.344-0.231,0.516
											c-0.407,0.909-0.814,1.825-1.209,2.745c-5.908-0.315-11.902-0.208-16.132-1.553c-2.32-0.737-5.015-1.97-6.701-4.766
											c-1.264-2.096-1.836-4.165-1.232-6.636c0.548-2.243,2.174-3.474,3.788-4.476c0.056-0.035,0.111-0.072,0.171-0.104
											c0.214-0.114,0.424-0.222,0.633-0.322c1.643-0.786,3.207-1.092,6.135-0.393l2.514,0.823l0.376-2.618
											c0.272-1.55,0.811-2.862,1.683-3.968c0.001,0,0.001,0,0.001-0.001c0.526-0.666,1.173-1.257,1.956-1.781
											c0.056-0.037,0.113-0.072,0.169-0.107c1.613-1.003,3.475-1.871,5.691-1.412c2.491,0.517,4.084,1.984,5.403,4.046
											C270.815,418.615,271.065,420.882,270.935,422.916z"/>
									</g>
								</g>
							</g>
						</g>
					</g>
				</g>
				<g>
					<path style="fill:#9C5BFF;" d="M266.072,451.266l17.554,9.249c0.758,0.399,1.61-0.342,1.32-1.148l-5.799-16.099
						L266.072,451.266z"/>
				</g>
			</g>
			<g>
				<g>
					<g>
						<path style="fill:#FF4B61;" d="M392.818,457.208l-35.271-28.335c-1.993-1.601-2.311-4.515-0.71-6.509l19.659-24.471
							c1.601-1.993,4.515-2.311,6.509-0.71l35.271,28.335c1.993,1.601,2.311,4.516,0.71,6.509l-19.659,24.471
							C397.725,458.492,394.811,458.809,392.818,457.208z"/>
					</g>
					<g>
						<g>
							<g>
								<g>
									<g>
										<path style="fill:#FFFFFF;" d="M395.494,436.303c-0.465,0.135-0.923,0.239-1.365,0.326
											c-0.105,0.02-0.211,0.04-0.318,0.058c-2.841,0.486-6.441,0.193-10.183-0.093c-0.156-0.012-0.312-0.024-0.468-0.035
											c-0.825-0.063-1.655-0.123-2.484-0.174c-1.413-4.705-3.18-9.358-3.317-13.04c-0.076-2.02,0.13-4.472,1.842-6.574
											c1.283-1.576,2.738-2.604,4.839-2.826c1.906-0.201,3.325,0.723,4.561,1.703c0.043,0.034,0.088,0.067,0.129,0.104
											c0.15,0.135,0.293,0.269,0.429,0.405c1.076,1.063,1.754,2.199,2.03,4.683l0.063,2.195l2.151-0.441
											c1.288-0.223,2.464-0.17,3.573,0.201c0,0,0.001,0.001,0.001,0.001c0.668,0.224,1.312,0.564,1.941,1.028
											c0.045,0.033,0.088,0.068,0.131,0.102c1.236,0.979,2.438,2.19,2.702,4.05c0.296,2.091-0.403,3.748-1.644,5.358
											C398.821,435.001,397.12,435.833,395.494,436.303z"/>
									</g>
								</g>
							</g>
						</g>
					</g>
				</g>
				<g>
					<path style="fill:#FF4B61;" d="M371.977,440.465l-2.297,16.314c-0.099,0.704,0.719,1.162,1.267,0.709l10.95-9.052
						L371.977,440.465z"/>
				</g>
			</g>
			<g>
				<g>
					<g>
						<path style="fill:#FF4B61;" d="M151.082,460.093l35.056-28.6c1.981-1.616,2.277-4.533,0.661-6.514l-19.843-24.322
							c-1.616-1.981-4.533-2.277-6.514-0.661l-35.056,28.601c-1.981,1.616-2.277,4.533-0.661,6.514l19.843,24.322
							C146.184,461.414,149.101,461.71,151.082,460.093z"/>
					</g>
					<g>
						<g>
							<g>
								<g>
									<g>
										<path style="fill:#FFFFFF;" d="M148.248,439.209c0.466,0.131,0.925,0.232,1.367,0.316c0.105,0.02,0.211,0.038,0.318,0.056
											c2.845,0.465,6.442,0.145,10.182-0.17c0.156-0.013,0.312-0.026,0.468-0.039c0.824-0.069,1.654-0.136,2.483-0.193
											c1.377-4.715,3.109-9.382,3.219-13.065c0.06-2.02-0.164-4.471-1.891-6.56c-1.295-1.566-2.758-2.584-4.86-2.79
											c-1.908-0.187-3.319,0.748-4.548,1.737c-0.043,0.035-0.087,0.067-0.128,0.105c-0.148,0.136-0.291,0.271-0.426,0.408
											c-1.068,1.071-1.737,2.212-1.995,4.698l-0.046,2.195l-2.154-0.425c-1.289-0.213-2.465-0.152-3.572,0.228
											c0,0-0.001,0.001-0.001,0c-0.666,0.229-1.308,0.574-1.933,1.043c-0.045,0.034-0.087,0.068-0.13,0.103
											c-1.229,0.988-2.422,2.208-2.671,4.07c-0.28,2.094,0.432,3.745,1.684,5.345
											C144.912,437.932,146.619,438.751,148.248,439.209z"/>
									</g>
								</g>
							</g>
						</g>
					</g>
				</g>
				<g>
					<path style="fill:#FF4B61;" d="M171.796,443.194l2.419,16.296c0.104,0.703-0.711,1.167-1.262,0.718l-11.018-8.969
						L171.796,443.194z"/>
				</g>
			</g>
		</g>
	</g>
	<g>
		<g>
			<g>
				<g>
					<path style="fill:#FFA86F;" d="M326.138,418.111l-0.108,2.26l-0.383,8.058l-0.275,5.789l-12.22,1.17l-1.823-9.692l-0.794-4.236
						l-0.279-1.48C312.638,416.472,326.138,418.111,326.138,418.111z"/>
				</g>
				<g>
					<polygon style="fill:#291C2A;" points="326.03,420.371 325.647,428.429 311.33,425.696 310.536,421.46 					"/>
				</g>
			</g>
			<g>
				<path style="fill:#291C2A;" d="M278.013,293.541c0.282,0.461,0.413,0.721,0.442,0.782
					C278.308,294.064,278.162,293.803,278.013,293.541z"/>
			</g>
			<g>
				<path style="fill:#291C2A;" d="M269.036,207.894c9.762,10.695,47.749,70.999,56.583,100.162
					c6.895,22.772-5.756,30.383-20.695,18.544c-6.511-5.159-18.336-17.892-26.46-32.261c0,0-0.003-0.005-0.008-0.015
					c-0.029-0.061-0.16-0.321-0.442-0.782c-1.1-1.794-4.978-7.531-13.936-17.234c-2.971-3.218-27.444-21.808-26.226-32.501
					C239.503,229.302,269.036,207.894,269.036,207.894z"/>
			</g>
			<g>
				<path style="fill:#291C2A;" d="M327.798,419.071l-14.224,0.234l-1.801,0.031l-3.112,0.051l-1.129-13.092
					c-0.448-14.499-9.319-34.02-10.677-51.685c-1.358-17.666,4.751-30.707,4.751-30.707c0.203-1.713,1.247-3.627,2.814-5.476
					c0.378-0.45,0.79-0.895,1.227-1.332c7.274-7.277,21.794-12.411,22.501,2.312C329.074,338.66,327.798,419.071,327.798,419.071z"
					/>
			</g>
			<g>
				<g>
					<path style="fill:#472850;" d="M313.574,419.305l-1.801,0.031c0.031-13.435-3.272-31.144-5.975-45.62
						c-1.119-6.006-2.179-11.68-2.881-16.387c-2.336-15.652,2.93-32.947,3.979-36.17c-0.785-0.826-1.615-1.741-2.477-2.732
						c-10.279-11.814-25.331-34.266-28.489-39.017c-7.946-11.961-26.83-30.187-27.021-30.37c-0.357-0.345-0.368-0.913-0.023-1.273
						c0.345-0.358,0.913-0.368,1.273-0.023c0.19,0.183,19.217,18.548,27.27,30.668c3.133,4.715,18.034,26.944,28.217,38.683
						c1.029,1.186,2.006,2.264,2.922,3.205c0.239,0.244,0.316,0.604,0.203,0.926c-0.067,0.188-6.582,19.032-4.074,35.836
						c0.697,4.676,1.754,10.335,2.871,16.326C310.282,387.92,313.597,405.699,313.574,419.305z"/>
				</g>
			</g>
			<g>
				<path style="fill:#472850;" d="M307.25,424.489l21.779-1.043c1.137-2.761,1.362-5.488,0.121-8.161l-22.071,1.12
					C305.888,418.898,305.976,421.598,307.25,424.489z"/>
			</g>
			<g>
				<g>
					<g>
						<path style="fill:#259BFF;" d="M365.238,451.74c-1.613,2.832-7.886,4.38-12.807,4.756c-4.239,0.324-27.172-0.198-38.624-0.507
							c-1.824-0.046-3.202-1.592-3.123-3.352c0.008-0.154,0.028-0.309,0.056-0.463c0.031-0.167,0.064-0.334,0.095-0.507
							c0.491-2.606,0.998-5.78,0.952-7.555c-0.09-3.362-1.726-4.987-2.063-9.324c-0.337-4.334,2.583-3.905,2.583-3.905
							c3.31,1.317,6.201,3.357,8.156,3.241c0,0,2.444,0,2.883-3.799c0.532-4.607,5.43-2.443,7.984,2.706
							c2.32,4.681,9.545,6.124,15.261,8.702c5.715,2.577,18.821,4.792,19.034,8.403C365.659,450.711,365.521,451.243,365.238,451.74
							z"/>
					</g>
					<g>
						<path style="fill:#FFFFFF;" d="M332.79,439.28c-0.7,0.143-1.249-0.594-0.934-1.235c0.468-0.953,1.508-2.337,3.524-1.992
							c3.012,0.514,2.322,2.283,2.322,2.283l-1.484-0.603c0,0-2.058-0.815-2.812,1.021c-0.106,0.257-0.319,0.461-0.59,0.522
							C332.807,439.277,332.799,439.279,332.79,439.28z"/>
					</g>
					<g>
						<path style="fill:#2774D9;" d="M365.238,451.74c-1.613,2.832-7.886,4.38-12.807,4.756c-4.239,0.324-27.172-0.198-38.624-0.507
							c-1.824-0.046-3.202-1.592-3.123-3.352c12.372,0.903,37.669,2.32,48.555,0.458C361.318,452.74,363.321,452.275,365.238,451.74
							z"/>
					</g>
				</g>
				<g>
					<path style="fill:#FFFFFF;" d="M336.33,440.663c-0.7,0.143-1.249-0.594-0.934-1.235c0.468-0.953,1.508-2.337,3.524-1.992
						c3.012,0.514,2.322,2.283,2.322,2.283l-1.484-0.603c0,0-2.058-0.815-2.812,1.02c-0.105,0.257-0.319,0.461-0.59,0.522
						C336.348,440.659,336.339,440.661,336.33,440.663z"/>
				</g>
				<g>
					<path style="fill:#FFFFFF;" d="M339.408,441.917c-0.7,0.143-1.249-0.594-0.934-1.235c0.468-0.953,1.508-2.337,3.524-1.992
						c3.012,0.514,2.322,2.283,2.322,2.283l-1.484-0.603c0,0-2.058-0.815-2.812,1.021c-0.105,0.257-0.319,0.461-0.59,0.522
						C339.425,441.913,339.417,441.915,339.408,441.917z"/>
				</g>
				<g>
					<path style="fill:#FFFFFF;" d="M342.174,443.036c-0.7,0.143-1.249-0.594-0.934-1.235c0.468-0.953,1.508-2.337,3.524-1.992
						c3.012,0.514,2.346,2.205,2.346,2.205l-1.508-0.525c0,0-2.058-0.815-2.812,1.02c-0.105,0.257-0.319,0.461-0.59,0.522
						C342.192,443.032,342.183,443.034,342.174,443.036z"/>
				</g>
			</g>
		</g>
		<g>
			<g>
				<g>
					<path style="fill:#FFA86F;" d="M127.219,406.432l-1.84,1.242l-6.56,4.429l-4.712,3.182c-6.265-1.672-9.148-4.684-7.799-9.374
						l6.604-7.207l2.888-3.148l1.008-1.101C120.911,394.35,127.219,406.432,127.219,406.432z"/>
				</g>
				<g>
					<polygon style="fill:#472850;" points="125.38,407.674 118.82,412.103 112.912,398.703 115.8,395.556 					"/>
				</g>
			</g>
			<g>
				<path style="fill:#472850;" d="M201.271,290.21c-0.212,0.516-0.348,0.783-0.381,0.845
					C201.015,290.774,201.143,290.494,201.271,290.21z"/>
			</g>
			<g>
				<path style="fill:#472850;" d="M265.574,231.149c-3.067,14.705-30.159,83.152-48.736,108.163
					c-14.508,19.527-27.947,13.368-26.924-6.417c0.445-8.622,3.98-26.301,10.968-41.824c0,0,0.003-0.005,0.008-0.016
					c0.033-0.062,0.169-0.329,0.381-0.845c0.823-2.01,2.727-5.809,4.139-18.196c0.515-4.521,3.76-40.357,13.131-45.747
					C231.253,218.957,265.574,231.149,265.574,231.149z"/>
			</g>
			<g>
				<path style="fill:#472850;" d="M209.084,348.276c-15.081,12.35-81.028,59.567-81.028,59.567l-7.07-10.082l-1.033-1.471
					l-3.144-4.486l9.97-8.824c11.501-9.09,22.238-28.34,35.785-40.104c13.548-11.761,27.63-14.415,27.63-14.415
					c1.501-0.854,3.647-1.12,6.037-0.906c0.568,0.052,1.15,0.13,1.743,0.232C208.061,329.559,220.64,338.811,209.084,348.276z"/>
			</g>
			<g>
				<g>
					<path style="fill:#674574;" d="M221.145,230.859c-0.055,0.279-5.559,28.335-8.342,49.152
						c-1.591,11.902-5.676,22.419-9.278,31.696c-2.191,5.635-4.284,11.025-5.551,16.078c-0.354,1.409-0.645,2.794-0.854,4.148
						c-0.055,0.346-0.291,0.628-0.61,0.729c-0.209,0.065-21.081,6.783-39.278,27.259c-1.705,1.919-3.328,3.752-4.882,5.502
						c-14.175,15.982-22.475,25.34-31.364,32.337l-1.033-1.471c8.773-6.905,17.023-16.206,31.12-32.105
						c1.553-1.75,3.176-3.583,4.884-5.502c16.918-19.039,36.144-26.4,39.532-27.59c0.197-1.164,0.446-2.343,0.742-3.539
						c1.29-5.231,3.436-10.756,5.678-16.532c3.565-9.181,7.608-19.586,9.169-31.261c2.791-20.88,8.305-48.988,8.359-49.272
						c0.097-0.492,0.56-0.81,1.031-0.708C220.939,229.883,221.242,230.365,221.145,230.859z"/>
				</g>
			</g>
			<g>
				<path style="fill:#674574;" d="M111.038,392.111l14.19,20.831c3.276-0.643,5.967-2.165,7.717-5.098l-14.439-21.07
					C115.448,387.192,112.973,389.005,111.038,392.111z"/>
			</g>
			<g>
				<g>
					<g>
						<path style="fill:#259BFF;" d="M90.182,453.982c-2.807-1.656-4.259-7.953-4.559-12.878c-0.259-4.243,0.616-27.166,1.1-38.611
							c0.082-1.98,1.923-3.41,3.861-3.007c0.167,0.033,0.333,0.069,0.505,0.103c2.598,0.531,5.764,1.087,7.539,1.068
							c3.363-0.038,5.013-1.649,9.355-1.92c4.339-0.27,3.864,2.642,3.864,2.642c-1.368,3.29-3.452,6.149-3.366,8.106
							c0,0,1.45,3.63,5.242,4.129c4.598,0.603,0.872,4.28-4.316,6.754c-4.716,2.248-6.27,9.45-8.935,15.125
							c-2.665,5.675-5.08,18.745-8.695,18.903C91.204,454.42,90.674,454.273,90.182,453.982z"/>
					</g>
					<g>
						<path style="fill:#2774D9;" d="M90.182,453.982c-2.807-1.656-4.259-7.953-4.559-12.878c-0.259-4.243,0.616-27.166,1.1-38.611
							c0.082-1.98,1.923-3.41,3.861-3.007c0.167,0.033,0.333,0.069,0.505,0.103c-1.26,10.546-4.013,36.511-2.171,48.376
							C89.241,450.047,89.676,452.058,90.182,453.982z"/>
					</g>
				</g>
				<g>
					<path style="fill:#FFFFFF;" d="M101.702,425.25c-0.132-0.702,0.613-1.24,1.25-0.915c0.946,0.482,2.313,1.544,1.938,3.554
						c-0.561,3.004-2.318,2.287-2.318,2.287l0.626-1.475c0,0,0.846-2.046-0.977-2.828c-0.255-0.109-0.456-0.326-0.512-0.598
						C101.705,425.267,101.703,425.258,101.702,425.25z"/>
				</g>
				<g>
					<path style="fill:#FFFFFF;" d="M103.158,422.243c-0.133-0.702,0.613-1.24,1.249-0.915c0.946,0.482,2.313,1.544,1.938,3.554
						c-0.561,3.004-2.318,2.287-2.318,2.287l0.625-1.475c0,0,0.846-2.046-0.977-2.828c-0.255-0.109-0.456-0.326-0.513-0.598
						C103.161,422.26,103.16,422.252,103.158,422.243z"/>
				</g>
				<g>
					<path style="fill:#FFFFFF;" d="M100.401,428.308c-0.132-0.702,0.613-1.24,1.25-0.915c0.946,0.482,2.313,1.544,1.938,3.554
						c-0.561,3.004-2.318,2.287-2.318,2.287l0.625-1.475c0,0,0.846-2.046-0.977-2.828c-0.255-0.109-0.456-0.326-0.513-0.598
						C100.404,428.325,100.402,428.317,100.401,428.308z"/>
				</g>
				<g>
					<path style="fill:#FFFFFF;" d="M99.239,431.056c-0.132-0.702,0.613-1.24,1.25-0.915c0.946,0.482,2.313,1.544,1.938,3.554
						c-0.561,3.004-2.241,2.312-2.241,2.312l0.548-1.5c0,0,0.846-2.046-0.977-2.828c-0.255-0.109-0.456-0.326-0.513-0.598
						C99.243,431.074,99.241,431.065,99.239,431.056z"/>
				</g>
			</g>
		</g>
		<g>
			<path style="fill:#472850;" d="M328.438,73.869c0,0-8.03,1.93-17.632,12.905c-9.603,10.975-13.547,2.401-21.435,8.831
				c-7.888,6.431,0.857,11.884-8.917,13.701c-9.774,1.817-24.693-0.625-27.779,16.887c-3.087,17.512,39.067,3.622,51.771,6.88
				s14.419,27.094,28.48,29.837c14.061,2.744,19.171-7.545,16.016-14.404c-3.155-6.859-10.473-7.517-5.556-23.642
				C348.303,108.739,348.642,79.655,328.438,73.869z"/>
		</g>
		<g>
			<g>
				<g>
					<g>
						<g>
							<g>
								<g>
									<g>
										<g>
											<g>
												<path style="fill:#FFA86F;" d="M344.746,208.796c-0.026,0.016-0.054,0.028-0.08,0.044
													c-0.674,0.37-1.289,0.689-1.857,0.96c-3.262,1.564-7.174,0.545-9.291-2.387c-1.232-1.708-2.534-3.508-2.549-3.534
													c-0.016-0.028-0.031-0.049-0.039-0.067c-0.015-0.031-0.026-0.044-0.026-0.044c-3.226-5.137-6.647-10.687-9.666-15.945
													c-0.905-1.577-1.775-3.125-2.59-4.63c-1.247-2.3-2.374-4.496-3.321-6.515c-1.844-3.933-2.989-6.5-2.989-6.5
													s4.903-8.751,14.273-10.083c0,0,3.002,0.62,3.74,2.564c1.129,2.973,3.128,6.878,5.425,11.24
													c0.345,0.653,0.694,1.317,1.049,1.988c1.664,3.141,3.434,6.474,5.113,9.833c0.435,0.872,0.864,1.744,1.284,2.613
													c1.718,3.565,3.279,7.112,4.452,10.451C349.013,202.602,348.286,206.836,344.746,208.796z"/>
											</g>
										</g>
									</g>
								</g>
							</g>
						</g>
					</g>
				</g>
				<g>
					<path style="fill:#472850;" d="M336.827,175.887l-15.587,11.935c-0.905-1.577-1.775-3.125-2.59-4.63l17.128-9.293
						C336.122,174.553,336.472,175.216,336.827,175.887z"/>
				</g>
				<g>
					<g>
						<g>
							<path style="fill:#FF804D;" d="M395.41,162.765c-1.843,2.474-1.171,5.001-2.486,7.797c-0.092-0.585-1.697-2.518-3.363-1.916
								c-7.752,2.798-1.067-6.69,0.354-8.313c1.421-1.623,7.112-6.434,8.345-8.281c1.233-1.846,2.613,0.24,1.435,3.417
								C398.562,158.529,394.724,158.652,395.41,162.765z"/>
						</g>
					</g>
					<g>
						<g>
							<path style="fill:#383856;" d="M415.301,147.013c-3.312,3.344-15.129,15.231-22.493,22.101
								c-0.399,0.372-0.886,0.424-1.138,0.121l-2.861-3.446c-0.294-0.354-0.151-1.046,0.308-1.49l22.244-21.548
								c0.376-0.364,0.845-0.443,1.114-0.186l3.068,2.933C415.884,145.823,415.769,146.54,415.301,147.013z"/>
						</g>
					</g>
					<g>
						<g>
							<path style="fill:#FFA86F;" d="M384.198,168.081c4.074-5.756,10.123-5.171,13.447-5.72c0.574-0.095,1.093-0.239,1.46-0.403
								c1.392-0.62,3.679-2.458,5.071-4.107c2.722-3.225,3.858-4.287,3.858-4.287l4.844-4.112c0,0-0.394,1.292-0.986,6.684
								c-0.591,5.392-4.521,8.212-6.465,11.2c-1.944,2.989-14.705,7.227-14.705,7.227s-1.676-2.516-3.883-3.941
								C386.862,170.6,384.18,168.106,384.198,168.081z"/>
						</g>
					</g>
					<g>
						<g>
							<path style="fill:#FFA86F;" d="M409.576,156.829c0,0,1.524-4.06,0.493-5.433c-1.03-1.374-1.671-0.742-3.316,3.285
								c-1.645,4.027-6.609,7.266-6.609,7.266S406.857,161.551,409.576,156.829z"/>
						</g>
					</g>
				</g>
				<g>
					<g>
						<path style="fill:#FFA86F;" d="M332.423,205.146c3.177,6.244,11.097,8.297,16.911,4.39
							c10.014-6.73,21.72-18.838,34.203-28.614c23.229-18.192,7.774-18.045-2.315-11.097c-10.089,6.948-27.432,12.35-34.539,16.465
							c-16.079,9.31-17.299,12.884-17.299,12.884L332.423,205.146z"/>
					</g>
				</g>
				<g>
					<path style="fill:#472850;" d="M343.224,188.334c-1.124,1.443-2.451,3.835-3.447,7.714c0,0-0.676-6.281,2.163-10.327
						C342.375,186.593,342.804,187.465,343.224,188.334z"/>
				</g>
			</g>
			<g>
				<path style="fill:#7E36D2;" d="M327.416,137.602l12.555,34.93c0,0-11.308,7.907-23.82,13.759l-6.348-19.888
					C309.803,166.402,314.384,143.214,327.416,137.602z"/>
			</g>
		</g>
		<g>
			<g>
				<g>
					<g>
						<g>
							<path style="fill:#259BFF;" d="M202.289,195.975l31.147-37.585c1.632-1.969,1.358-4.887-0.611-6.519l-26.219-21.729
								c-1.969-1.632-4.887-1.358-6.519,0.611l-31.147,37.585c-1.632,1.969-1.358,4.887,0.61,6.519l26.219,21.729
								C197.739,198.217,200.658,197.944,202.289,195.975z"/>
						</g>
					</g>
					<g>
						<g>
							<path style="fill:#FFFFFF;" d="M195.22,174.492c0.514,0.041,1.015,0.052,1.494,0.048c0.114-0.001,0.229-0.003,0.344-0.007
								c3.07-0.1,6.765-1.175,10.61-2.274c0.16-0.046,0.321-0.092,0.481-0.137c0.847-0.242,1.701-0.483,2.556-0.712
								c0.469-5.213,1.319-10.448,0.675-14.322c-0.353-2.125-1.092-4.64-3.328-6.469c-1.676-1.371-3.415-2.133-5.655-1.916
								c-2.033,0.197-3.316,1.466-4.397,2.753c-0.038,0.045-0.077,0.088-0.113,0.136c-0.127,0.173-0.248,0.344-0.362,0.514
								c-0.896,1.34-1.36,2.67-1.118,5.322l0.404,2.305l-2.34-0.001c-1.392,0.043-2.609,0.349-3.687,0.973c0,0,0,0.001-0.001,0.001
								c-0.65,0.376-1.249,0.869-1.806,1.488c-0.04,0.044-0.077,0.09-0.115,0.134c-1.081,1.286-2.077,2.807-1.954,4.805
								c0.138,2.246,1.222,3.826,2.861,5.241C191.469,173.844,193.423,174.349,195.22,174.492z"/>
						</g>
					</g>
				</g>
				<g>
					<g>
						<path style="fill:#259BFF;" d="M220.658,173.81l5.885,16.538c0.254,0.714-0.503,1.367-1.171,1.011l-13.366-7.109
							L220.658,173.81z"/>
					</g>
				</g>
			</g>
			<g>
				<g>
					<path style="fill:#9C5BFF;" d="M324.409,164.668c0,16.067-9.66,18.134-18.063,23.451c-10.986,6.95-23.214,39.447-23.214,39.447
						c-26.653,22.738-73.818,8.078-73.818,8.078s11.872-19.082,27.135-51.105c4.738-9.936,9.563-18.473,14.335-25.997
						c2.066-3.261,4.121-6.333,6.158-9.244c6.114-8.761,12.027-16.084,17.414-22.833c13.471-16.884,41.263-14.808,53.18,3.879
						c1.741,2.727,2.732,5.142,2.904,6.675C332.102,151.699,324.409,152.23,324.409,164.668z"/>
				</g>
				<g>
					<path style="fill:#7E36D2;" d="M316.848,154.771c-0.037-0.015-0.072-0.035-0.106-0.06c-0.446-0.326-10.91-8.1-9.62-18.893
						c0.034-0.282,0.29-0.484,0.572-0.45c0.281,0.034,0.483,0.29,0.449,0.572c-1.218,10.189,9.101,17.864,9.206,17.941
						c0.229,0.168,0.279,0.489,0.112,0.719C317.318,154.795,317.063,154.86,316.848,154.771z"/>
				</g>
				<g>
					<path style="fill:#7E36D2;" d="M293.912,140.62c-0.214,0.216-13.321,13.463-43.128,17.92c2.066-3.261,4.121-6.333,6.158-9.244
						C264.53,148.805,284.866,146.932,293.912,140.62z"/>
				</g>
			</g>
			<g>
				<path style="fill:#7E36D2;" d="M324.045,136.544c-0.018,0-0.035-0.001-0.053-0.003c-5.464-0.565-10.239-3.637-13.811-8.884
					c-2.679-3.936-3.729-7.649-3.772-7.805c-0.076-0.274,0.084-0.557,0.358-0.633c0.274-0.075,0.557,0.084,0.633,0.358
					c0.041,0.146,4.223,14.65,16.698,15.941c0.283,0.029,0.488,0.282,0.459,0.565C324.529,136.347,324.306,136.544,324.045,136.544z
					"/>
			</g>
			<g>
				<path style="fill:#7E36D2;" d="M309.905,184.359c-0.048,0-0.096-0.007-0.145-0.021c-15.547-4.55-34.994-3.301-35.188-3.288
					c-0.283,0.02-0.529-0.195-0.548-0.479c-0.019-0.284,0.195-0.529,0.478-0.548c0.196-0.013,19.822-1.275,35.547,3.327
					c0.273,0.08,0.429,0.365,0.349,0.638C310.333,184.214,310.127,184.359,309.905,184.359z"/>
			</g>
			<g>
				<path style="fill:#7E36D2;" d="M276.845,218.174c-12.533,0-21.496-5.274-26.903-9.836c-6.176-5.211-9.088-10.492-9.209-10.715
					c-0.136-0.249-0.044-0.562,0.206-0.697c0.249-0.136,0.562-0.044,0.698,0.206c0.029,0.053,2.959,5.359,8.999,10.447
					c5.558,4.681,14.971,10.133,28.25,9.52c0.278-0.014,0.524,0.206,0.537,0.49c0.013,0.284-0.206,0.524-0.49,0.537
					C278.227,218.158,277.53,218.174,276.845,218.174z"/>
			</g>
			<g>
				<path style="fill:#7E36D2;" d="M276.682,215.04c-0.04,0-0.08-0.005-0.121-0.014c-0.537-0.129-13.188-3.277-16.151-13.735
					c-0.078-0.273,0.081-0.558,0.355-0.635c0.272-0.077,0.558,0.081,0.635,0.355c2.798,9.873,15.276,12.985,15.402,13.015
					c0.276,0.067,0.446,0.344,0.38,0.62C277.125,214.881,276.914,215.04,276.682,215.04z"/>
			</g>
			<g>
				<path style="fill:#FFFFFF;" d="M320.479,146.402c-1.05,0-2.191-0.268-3.418-0.803c-9.33-4.07-8.337-28.345-8.29-29.376
					c0.013-0.284,0.255-0.502,0.537-0.491c0.284,0.013,0.503,0.254,0.491,0.537c-0.011,0.246-1.011,24.598,7.674,28.387
					c2.376,1.036,4.343,0.936,5.845-0.299c3.612-2.97,3.936-11.938,3.272-14.949c-0.061-0.277,0.114-0.552,0.392-0.613
					c0.276-0.062,0.552,0.114,0.613,0.392c0.584,2.65,0.604,12.488-3.624,15.965C322.957,145.985,321.79,146.402,320.479,146.402z"
					/>
			</g>
			<g>
				<g>
					<g>
						<g>
							<path style="fill:#FFB109;" d="M205.782,194.614l36.253,32.688c1.899,1.712,4.826,1.561,6.539-0.338l22.803-25.29
								c1.712-1.899,1.561-4.826-0.338-6.539l-36.253-32.688c-1.899-1.712-4.826-1.561-6.539,0.338l-22.803,25.29
								C203.732,189.975,203.883,192.902,205.782,194.614z"/>
						</g>
					</g>
					<g>
						<g>
							<path style="fill:#FFFFFF;" d="M227.541,188.447c-0.063,0.512-0.095,1.012-0.111,1.491c-0.004,0.114-0.006,0.229-0.007,0.345
								c-0.028,3.072,0.892,6.808,1.829,10.695c0.039,0.162,0.078,0.324,0.117,0.486c0.206,0.857,0.411,1.719,0.605,2.583
								c5.189,0.686,10.384,1.754,14.281,1.272c2.137-0.264,4.682-0.898,6.602-3.055c1.439-1.617,2.274-3.323,2.15-5.571
								c-0.113-2.039-1.326-3.374-2.567-4.508c-0.043-0.039-0.085-0.081-0.132-0.118c-0.168-0.134-0.333-0.262-0.498-0.383
								c-1.301-0.951-2.611-1.471-5.271-1.339l-2.32,0.307l0.098-2.338c0.015-1.392-0.24-2.621-0.819-3.725
								c0,0-0.001-0.001-0.001-0.001c-0.349-0.665-0.816-1.284-1.412-1.867c-0.043-0.042-0.086-0.081-0.13-0.121
								c-1.24-1.134-2.718-2.192-4.72-2.153c-2.25,0.045-3.874,1.062-5.356,2.64C228.345,184.727,227.759,186.658,227.541,188.447z"
								/>
						</g>
					</g>
				</g>
				<g>
					<g>
						<path style="fill:#FFB109;" d="M227.162,213.892l-16.769,5.19c-0.724,0.224-1.344-0.559-0.961-1.213l7.66-13.057
							L227.162,213.892z"/>
					</g>
				</g>
			</g>
			<g>
				<g>
					<g>
						<path style="fill:#FF4B61;" d="M226.179,216.717l-42.294,16.066c-2.39,0.908-5.064-0.294-5.972-2.684l-11.147-29.344
							c-0.908-2.39,0.294-5.064,2.684-5.972l42.294-16.066c2.39-0.908,5.064,0.294,5.972,2.684l11.147,29.344
							C229.771,213.135,228.57,215.809,226.179,216.717z"/>
					</g>
					<g>
						<g>
							<g>
								<g>
									<g>
										<path style="fill:#FFFFFF;" d="M209.508,203.823c-0.119,0.469-0.261,0.917-0.41,1.342
											c-0.035,0.101-0.072,0.202-0.111,0.304c-1.019,2.697-3.095,5.652-5.237,8.734c-0.089,0.129-0.179,0.257-0.268,0.386
											c-0.472,0.679-0.944,1.364-1.408,2.054c-4.772-1.164-9.68-1.996-12.925-3.743c-1.78-0.958-3.79-2.377-4.736-4.917
											c-0.709-1.904-0.859-3.68,0.013-5.604c0.792-1.746,2.307-2.501,3.778-3.071c0.051-0.02,0.102-0.042,0.155-0.059
											c0.192-0.061,0.38-0.116,0.566-0.165c1.461-0.389,2.784-0.399,5.066,0.621l1.925,1.057l0.709-2.078
											c0.46-1.223,1.101-2.211,1.982-2.98c0,0,0.001,0,0.001-0.001c0.531-0.463,1.15-0.846,1.87-1.153
											c0.051-0.022,0.103-0.041,0.154-0.061c1.47-0.57,3.123-0.994,4.861-0.279c1.953,0.804,3.028,2.246,3.788,4.13
											C210.07,200.295,209.926,202.183,209.508,203.823z"/>
									</g>
								</g>
							</g>
						</g>
					</g>
				</g>
				<g>
					<path style="fill:#FF4B61;" d="M201.189,226.21l12.905,10.241c0.557,0.442,1.366-0.032,1.253-0.734l-2.261-14.026
						L201.189,226.21z"/>
				</g>
			</g>
			<g>
				<g>
					<g>
						<path style="fill:#FF4B61;" d="M260.481,184.546l-51.845-15.396c-2.451-0.728-3.848-3.305-3.12-5.756l10.813-36.411
							c0.728-2.451,3.305-3.848,5.756-3.12l51.845,15.396c2.451,0.728,3.848,3.305,3.12,5.756l-10.813,36.411
							C265.509,183.877,262.932,185.274,260.481,184.546z"/>
					</g>
					<g>
						<g>
							<g>
								<g>
									<g>
										<path style="fill:#FFFFFF;" d="M253.446,160.666c-0.441,0.349-0.888,0.664-1.325,0.951
											c-0.104,0.068-0.209,0.136-0.316,0.202c-2.843,1.773-6.844,3.041-10.995,4.379c-0.173,0.056-0.346,0.112-0.519,0.168
											c-0.915,0.295-1.834,0.595-2.749,0.906c-3.589-4.44-7.537-8.668-9.304-12.569c-0.97-2.14-1.827-4.868-0.91-7.883
											c0.687-2.26,1.8-4.006,3.963-5.169c1.962-1.055,3.895-0.685,5.655-0.174c0.061,0.018,0.124,0.033,0.185,0.055
											c0.22,0.08,0.433,0.161,0.64,0.246c1.625,0.671,2.854,1.594,4.244,4.145l1.033,2.334l2.12-1.421
											c1.287-0.806,2.576-1.267,3.932-1.356c0.001,0,0.001,0.001,0.001,0c0.817-0.053,1.659,0.029,2.54,0.253
											c0.063,0.016,0.124,0.034,0.186,0.052c1.761,0.509,3.586,1.283,4.688,3.169c1.238,2.12,1.215,4.209,0.588,6.486
											C256.452,157.803,254.988,159.446,253.446,160.666z"/>
									</g>
								</g>
							</g>
						</g>
					</g>
				</g>
				<g>
					<path style="fill:#FF4B61;" d="M229.978,175.488l4.705,18.56c0.203,0.801,1.285,0.933,1.675,0.205l7.798-14.554
						L229.978,175.488z"/>
				</g>
			</g>
			<g>
				<g>
					<g>
						<g>
							<g>
								<g>
									<g>
										<g>
											<g>
												<path style="fill:#FFA86F;" d="M275.792,143.969c0,0-1.85,3.201-4.354,3.309c-3.832,0.166-9.06,0.97-14.922,1.947
													c-0.878,0.145-1.771,0.296-2.673,0.445c-4.228,0.715-8.713,1.479-13.192,2.127c-1.164,0.168-2.323,0.328-3.48,0.477
													c-0.869,0.113-1.732,0.222-2.596,0.32c-0.988,0.115-1.974,0.22-2.946,0.314c-2.799,0.274-5.524,0.453-8.105,0.501
													c-4.877,0.085-9.446-2.356-10.346-7.149c-0.008-0.036-0.014-0.074-0.021-0.107c-0.169-0.913-0.301-1.736-0.394-2.491
													c-0.553-4.324,2.094-8.416,6.253-9.727c2.423-0.763,4.977-1.571,5.011-1.578c0.04-0.006,0.07-0.016,0.091-0.019
													c0.043-0.007,0.061-0.013,0.061-0.013c7.102-1.745,14.753-3.556,21.915-5.018c2.145-0.437,4.247-0.848,6.28-1.21
													c3.103-0.556,6.046-1.012,8.715-1.329c5.201-0.62,8.572-0.959,8.572-0.959S277.819,132.738,275.792,143.969z"/>
											</g>
										</g>
									</g>
								</g>
							</g>
						</g>
					</g>
				</g>
				<g>
					<path style="fill:#472850;" d="M253.843,149.673l-7.751-22.365c2.148-0.438,4.25-0.846,6.281-1.209l4.143,23.127
						C255.638,149.372,254.746,149.521,253.843,149.673z"/>
				</g>
				<g>
					<g>
						<path style="fill:#FFA86F;" d="M230.078,137.398c-6.479-5.419-13.595-3.509-18.192,3.577
							c-7.917,12.204-17.8,30.737-27.012,47.488c-17.142,31.171-0.074,23.689,7.822,11.207
							c7.896-12.481,24.568-26.684,30.499-34.612c13.42-17.937,13.08-22.477,13.08-22.477L230.078,137.398z"/>
					</g>
				</g>
				<path style="fill:#FFFFFF;" d="M186.184,186.078c0,0-0.357-1.809,1.886-3.443c0,0,11.028,3.609,12.042,7.3
					c0,0-0.194,1.256-2.049,2.16C198.062,192.094,194.219,188.281,186.184,186.078z"/>
				<g>
					<path style="fill:#FFA86F;" d="M189.354,202.118c0,0,4.122,9.642,4.003,13.955c-0.049,1.782-0.908,3.995-1.9,5.979
						c-1.021,2.043-4.023,1.75-4.628-0.452l-0.388-1.415c0,0-7.664,9.549-9.326,10.926c-1.661,1.378-4.299-1.616-2.735-4.991
						c0,0-5.225,2.595-1.686-5.37c0,0-3.916,0.562-1.106-4.746c0,0-4.896,0.197-0.343-6.683l9.543-12.948
						C180.79,196.373,187.282,198.891,189.354,202.118z"/>
				</g>
				<g>
					<path style="fill:#472850;" d="M234.344,143.525c0,0,1.096,4.559,0.232,9.07c-0.988,0.115-1.974,0.22-2.946,0.314
						C232.689,150.988,233.791,148.015,234.344,143.525z"/>
				</g>
			</g>
			<g>
				<path style="fill:#9C5BFF;" d="M286.053,117.58c0,0-23.261,2.545-37.408,7.947c0,0,3.869,12.711,6.173,24.866
					c0,0,27.008-2.829,35.753-11.06C299.316,131.101,295.681,118.72,286.053,117.58z"/>
			</g>
		</g>
		<g>
			<g>
				<path style="fill:#472850;" d="M362.635,95.605c0,0,1.531,11.908-7.444,18.882L362.635,95.605z"/>
			</g>
			<g>
				<g>
					<g>
						<path style="fill:#FFA86F;" d="M314.057,125.781c-1.616-1.691-3.102-3.544-3.863-5.774c5.765-6.866,9.473-11.572,9.473-11.572
							l5.326,10.482l1.739,3.345l1.875,3.611c0.006,0.008,0.007,0.014,0.007,0.014s-1.109,1.694-2.312,3.705
							c-0.719,1.209-1.474,2.534-2.044,3.679C320.406,131.571,316.911,128.766,314.057,125.781z"/>
					</g>
				</g>
			</g>
			<g>
				<g>
					<path style="fill:#FFA86F;" d="M316.912,101.758c0,0,7.093,18.598,14.199,27.695c7.106,9.097,15.078,0.367,18.165-4.658
						c3.088-5.025,10.62-17.857,10.924-24.239c0.305-6.381-15.338-26.869-29.01-24.283
						C317.518,78.859,316.912,101.758,316.912,101.758z"/>
				</g>
				<g>
					<g>
						<path style="fill:#FF804D;" d="M321.809,107.947c0,0,1.957,4.031,6.063,2.628c0,0-1.565,2.858-5.049,0.643
							c-2.127-1.352-2.606-3.451-2.606-3.451L321.809,107.947z"/>
					</g>
				</g>
			</g>
			<g>
				<path style="fill:#472850;" d="M320.374,97.411c0.873-3.527,4.596-5.632,8.008-4.383c1.294,0.474,2.418,1.409,2.573,3.213
					c0.386,4.508-2.829,9.179,0,10.83c2.829,1.652,3.858-6.322,6.816-6.579c2.958-0.257,16.333,2.058,19.548-1.286
					c0,0-2.657,8.54-0.985,12.853c0,0,5.952-5.989,6.258-13.11c0.292-6.802-1.158-15.176-14.276-22.378
					c-13.118-7.202-24.178-3.472-31.252,5.916c-7.073,9.388-2.132,31.811-2.132,31.811l4.317-4.992l2.56-1.359
					C321.809,107.947,319.154,102.338,320.374,97.411z"/>
			</g>
			<g>
				<g>
					<path style="fill:#FF4B61;" d="M321.264,76.406c0,0,6.543-9.353,21.461-6.897c17.208,2.832,19.9,24.467,19.9,24.467
						S340.729,80.558,321.264,76.406z"/>
				</g>
				<g>
					<g>
						<path style="fill:#E82D4F;" d="M363.192,99.893c0,0-0.419-0.1-1.685-0.633c-0.219-0.093-0.46-0.198-0.733-0.319
							c-1.08-0.478-2.595-1.188-4.689-2.243c-0.232-0.116-0.468-0.237-0.715-0.363c-1.322-0.674-2.858-1.474-4.633-2.425
							c-0.226-0.121-0.458-0.244-0.694-0.37c-1.381-0.746-2.904-1.577-4.576-2.505c-0.036-0.018-0.072-0.039-0.108-0.059
							c-0.195-0.108-0.388-0.216-0.584-0.319c-1.561-0.851-3.097-1.618-4.594-2.31c-0.234-0.108-0.471-0.216-0.705-0.322
							c-1.618-0.728-3.192-1.368-4.707-1.932c-0.244-0.09-0.486-0.177-0.728-0.262c-1.711-0.617-3.346-1.134-4.882-1.569
							c-0.255-0.072-0.504-0.141-0.751-0.208c-1.867-0.504-3.581-0.887-5.108-1.175c-0.273-0.051-0.543-0.1-0.803-0.147
							c-2.323-0.406-4.157-0.594-5.368-0.677c-0.327-0.023-0.607-0.039-0.841-0.051c-0.532-0.023-0.813-0.021-0.813-0.021
							s-0.468-3.853,3.174-5.155c0.26-0.092,0.538-0.17,0.831-0.229c0.355-0.077,0.733-0.129,1.134-0.16
							c1.533-0.121,3.377,0.07,5.43,0.491c0.28,0.059,0.563,0.121,0.851,0.185c1.456,0.334,3.007,0.777,4.614,1.299
							c0.252,0.08,0.504,0.165,0.759,0.249c1.415,0.476,2.871,1.011,4.342,1.584c0.239,0.095,0.481,0.188,0.72,0.283h0.003
							c1.407,0.561,2.824,1.158,4.236,1.775c0.237,0.103,0.473,0.206,0.71,0.309c1.42,0.63,2.829,1.276,4.208,1.927
							c0.239,0.111,0.476,0.224,0.712,0.337c1.461,0.692,2.881,1.389,4.236,2.071c0.247,0.121,0.489,0.244,0.73,0.365
							c1.533,0.774,2.973,1.52,4.283,2.21c0.26,0.139,0.517,0.273,0.767,0.406c1.749,0.929,3.231,1.739,4.342,2.359
							c0.291,0.16,0.556,0.306,0.792,0.44c0.926,0.52,1.443,0.818,1.443,0.818C364.39,94.954,364.03,97.727,363.192,99.893z"/>
					</g>
					<g>
						<g>
							<g>
								<path style="fill:#C01B40;" d="M320.614,76.439c-1.615,1.95-2.747,4.005-3.485,5.615c-0.327-0.023-0.607-0.039-0.841-0.051
									c0.674-1.525,1.708-3.483,3.192-5.404C319.835,76.522,320.213,76.47,320.614,76.439z"/>
							</g>
						</g>
						<g>
							<g>
								<path style="fill:#C01B40;" d="M326.896,77.116c-1.543,1.903-2.734,3.984-3.596,5.762c-0.273-0.051-0.543-0.1-0.803-0.147
									c0.844-1.77,2.014-3.853,3.547-5.8C326.325,76.99,326.608,77.052,326.896,77.116z"/>
							</g>
						</g>
						<g>
							<g>
								<path style="fill:#C01B40;" d="M332.269,78.664c-1.242,1.844-2.289,3.833-3.11,5.597c-0.255-0.072-0.504-0.141-0.751-0.208
									c0.815-1.767,1.857-3.768,3.102-5.638C331.762,78.495,332.014,78.579,332.269,78.664z"/>
							</g>
						</g>
						<g>
							<g>
								<path style="fill:#C01B40;" d="M337.331,80.532c-0.954,1.854-1.831,3.809-2.562,5.561c-0.244-0.09-0.486-0.177-0.728-0.262
									c0.733-1.754,1.613-3.714,2.57-5.582C336.85,80.344,337.092,80.437,337.331,80.532z"/>
							</g>
						</g>
						<g>
							<g>
								<path style="fill:#C01B40;" d="M342.28,82.615l-2.099,5.731c-0.234-0.108-0.471-0.216-0.705-0.322l2.094-5.718
									C341.807,82.41,342.043,82.512,342.28,82.615z"/>
							</g>
						</g>
						<g>
							<g>
								<path style="fill:#C01B40;" d="M347.2,84.879c-0.507,2.15-1.142,4.308-1.734,6.155c-0.036-0.018-0.072-0.039-0.108-0.059
									c-0.195-0.108-0.388-0.216-0.584-0.319c0.589-1.847,1.217-3.99,1.713-6.114C346.727,84.652,346.964,84.766,347.2,84.879z"/>
							</g>
						</g>
						<g>
							<g>
								<path style="fill:#C01B40;" d="M352.167,87.315c-0.314,2.377-0.877,4.694-1.43,6.595c-0.226-0.121-0.458-0.244-0.694-0.37
									c0.55-1.909,1.103-4.229,1.394-6.59C351.684,87.07,351.925,87.194,352.167,87.315z"/>
							</g>
						</g>
						<g>
							<g>
								<path style="fill:#C01B40;" d="M357.216,89.93c-0.126,2.523-0.617,4.895-1.132,6.767c-0.232-0.116-0.468-0.237-0.715-0.363
									c0.509-1.898,0.988-4.298,1.08-6.811C356.71,89.663,356.967,89.797,357.216,89.93z"/>
							</g>
						</g>
						<g>
							<g>
								<path style="fill:#C01B40;" d="M362.35,92.729c0.021,2.49-0.386,4.766-0.844,6.531c-0.219-0.093-0.46-0.198-0.733-0.319
									c0.455-1.806,0.849-4.136,0.785-6.652C361.849,92.449,362.114,92.595,362.35,92.729z"/>
							</g>
						</g>
					</g>
				</g>
			</g>
			<g>
				<g>
					<path style="fill:#472850;" d="M349.12,113.141c-0.67,1.289-0.72,2.59-0.112,2.907c0.609,0.316,1.646-0.472,2.316-1.761
						c0.67-1.289,0.72-2.59,0.112-2.907C350.827,111.063,349.791,111.852,349.12,113.141z"/>
				</g>
			</g>
			<g>
				<g>
					<g>
						<path style="fill:#472850;" d="M328.615,125.888c0,0-1.109,1.694-2.312,3.705c-2.648-4.296-1.937-8.576-1.311-10.676
							c0.251-0.845,0.491-1.338,0.491-1.338c0.086,1.553,0.634,3.239,1.248,4.683c0.826,1.949,1.775,3.455,1.875,3.611
							C328.613,125.882,328.615,125.888,328.615,125.888z"/>
					</g>
				</g>
			</g>
			<g>
				<g>
					<g>
						<g>
							<g>
								<path style="fill:#FF804D;" d="M343.432,128.605c-0.108,0.006-0.219-0.011-0.324-0.053
									c-0.161-0.064-3.936-1.635-4.302-6.701c-0.026-0.356,0.27-0.667,0.659-0.694c0.004,0,0.008,0,0.012-0.001
									c0.384-0.021,0.715,0.244,0.74,0.597c0.311,4.298,3.437,5.6,3.469,5.613c0.356,0.143,0.516,0.524,0.356,0.852
									C343.93,128.449,343.689,128.591,343.432,128.605z"/>
							</g>
						</g>
					</g>
				</g>
			</g>
			<g>
				<g>
					<path style="fill:#472850;" d="M347.354,107.996c-0.215-0.043-0.413-0.169-0.54-0.369c-0.246-0.387-0.133-0.898,0.252-1.145
						c1.515-0.971,5.059-2.027,7.625,0.919c0.301,0.346,0.265,0.872-0.082,1.173c-0.346,0.302-0.871,0.265-1.173-0.081
						c-2.257-2.594-5.346-0.691-5.476-0.609C347.773,108.002,347.556,108.036,347.354,107.996z"/>
				</g>
			</g>
			<g>
				<g>
					<g>
						<path style="fill:#FFFFFF;" d="M326.461,110.41c-0.459,0.838-1.51,1.146-2.349,0.687s-1.146-1.511-0.686-2.349
							c0.459-0.838,1.511-1.146,2.349-0.687S326.921,109.572,326.461,110.41z"/>
					</g>
				</g>
			</g>
			<g>
				<g>
					<g>
						<path style="fill:#FFA86F;" d="M355.715,112.982c0,0-2.935,8.023-2.681,10.932c0,0,0.24,2.511-3.999,1.266L355.715,112.982z"
							/>
					</g>
				</g>
			</g>
			<g>
				<g>
					<g>
						<g>
							<g>
								<path style="fill:#FF804D;" d="M325.986,106.208c-0.033-0.014-0.065-0.03-0.096-0.049c-0.322-0.197-0.423-0.618-0.226-0.94
									c2.672-4.361-1.008-8.184-1.165-8.344c-0.264-0.269-0.262-0.701,0.007-0.965c0.268-0.264,0.7-0.263,0.964,0.005
									c0.046,0.047,4.597,4.735,1.359,10.019C326.651,106.224,326.291,106.334,325.986,106.208z"/>
							</g>
						</g>
					</g>
				</g>
				<g>
					<g>
						<g>
							<g>
								<path style="fill:#FF804D;" d="M326.863,102.575c-0.179-0.074-0.325-0.223-0.389-0.421
									c-0.298-0.922-2.008-1.383-2.582-1.471c-0.374-0.059-0.629-0.406-0.572-0.778c0.057-0.373,0.404-0.629,0.777-0.573
									c0.311,0.046,3.068,0.514,3.677,2.402c0.116,0.359-0.081,0.744-0.44,0.86C327.173,102.646,327.007,102.635,326.863,102.575z
									"/>
							</g>
						</g>
					</g>
				</g>
			</g>
			<g>
				<g>
					<g>
						<path style="fill:#FFFFFF;" d="M345.986,122.076c-0.764,0-1.439-0.211-1.985-0.633c-2.131-1.646-1.536-5.867,1.355-9.61
							c1.353-1.752,3.005-3.113,4.653-3.831c1.724-0.752,3.252-0.72,4.302,0.091c1.05,0.811,1.468,2.281,1.176,4.139
							c-0.279,1.776-1.178,3.719-2.531,5.471c-1.353,1.752-3.005,3.112-4.653,3.831
							C347.475,121.896,346.692,122.076,345.986,122.076z M352.322,108.232c-0.598,0-1.276,0.159-2.005,0.477
							c-1.531,0.668-3.076,1.945-4.351,3.596c-2.538,3.287-3.223,7.192-1.494,8.527c0.817,0.631,2.068,0.629,3.522-0.006
							c1.531-0.668,3.076-1.945,4.351-3.596l0,0c1.275-1.651,2.12-3.469,2.379-5.118c0.246-1.567-0.068-2.778-0.885-3.409
							C353.432,108.39,352.917,108.232,352.322,108.232z"/>
					</g>
				</g>
				<g>
					<g>
						<path style="fill:#FFFFFF;" d="M347.985,110.191c-0.075,0.072-0.17,0.108-0.265,0.108c-0.103,0-0.203-0.041-0.28-0.118
							c-0.057-0.062-5.078-5.258-11.498-8.434c0.17-0.224,0.347-0.427,0.532-0.599c6.459,3.254,11.467,8.437,11.523,8.498
							C348.144,109.801,348.139,110.045,347.985,110.191z"/>
					</g>
				</g>
				<g>
					<g>
						<path style="fill:#FFFFFF;" d="M355.068,116.247c-0.168,0-0.323-0.111-0.371-0.281c-0.13-0.462-0.569-0.468-0.568-0.462
							c0,0,0,0,0,0c-0.213,0-0.386-0.173-0.386-0.385c0-0.213,0.172-0.386,0.385-0.386c0,0,0.001,0,0.001,0
							c0.354,0,1.082,0.214,1.311,1.025c0.058,0.205-0.062,0.418-0.267,0.476C355.138,116.242,355.103,116.247,355.068,116.247z"/>
					</g>
				</g>
			</g>
		</g>
	</g>
	<g>
		<g>
			<g>
				<g>
					<path style="fill:#FFB109;" d="M396.849,133.975l-14.016,7.04c-1.142,0.574-2.534,0.113-3.108-1.03l-4.722-9.402
						c-0.574-1.142-0.113-2.534,1.03-3.107l14.016-7.04c1.142-0.574,2.534-0.113,3.108,1.03l4.722,9.402
						C398.452,132.009,397.991,133.401,396.849,133.975z"/>
				</g>
				<g>
					<g>
						<g>
							<g>
								<g>
									<path style="fill:#FFFFFF;" d="M390.703,129.565c-0.026,0.178-0.062,0.35-0.101,0.513c-0.009,0.039-0.019,0.078-0.03,0.117
										c-0.275,1.039-0.932,2.214-1.609,3.438c-0.028,0.051-0.056,0.102-0.085,0.153c-0.149,0.27-0.298,0.542-0.444,0.815
										c-1.814-0.25-3.665-0.371-4.935-0.895c-0.697-0.287-1.496-0.737-1.944-1.643c-0.336-0.679-0.459-1.332-0.209-2.078
										c0.227-0.678,0.76-1.015,1.284-1.283c0.018-0.009,0.036-0.019,0.055-0.028c0.069-0.03,0.137-0.057,0.204-0.083
										c0.527-0.2,1.017-0.254,1.902,0.037l0.754,0.319l0.184-0.798c0.124-0.471,0.324-0.862,0.621-1.18c0,0,0,0,0,0
										c0.179-0.192,0.394-0.357,0.649-0.499c0.018-0.01,0.037-0.019,0.055-0.029c0.523-0.268,1.12-0.487,1.791-0.289
										c0.755,0.224,1.208,0.717,1.562,1.387C390.777,128.235,390.795,128.941,390.703,129.565z"/>
								</g>
							</g>
						</g>
					</g>
				</g>
			</g>
			<g>
				<path style="fill:#FFB109;" d="M388.472,138.182l5.175,3.305c0.223,0.143,0.505-0.064,0.437-0.32l-1.373-5.114L388.472,138.182z
					"/>
			</g>
		</g>
		<g>
			<g>
				<g>
					<path style="fill:#FF4B61;" d="M412.545,131.592l-17.92-15.57c-0.965-0.839-1.068-2.3-0.229-3.266l10.84-12.477
						c0.839-0.965,2.301-1.068,3.266-0.229l17.92,15.57c0.965,0.839,1.068,2.3,0.229,3.266l-10.841,12.477
						C414.972,132.327,413.51,132.43,412.545,131.592z"/>
				</g>
				<g>
					<g>
						<g>
							<g>
								<g>
									<path style="fill:#FFFFFF;" d="M414.285,120.71c-0.245,0.061-0.485,0.106-0.716,0.142c-0.055,0.009-0.11,0.017-0.167,0.024
										c-1.488,0.196-3.354-0.029-5.294-0.253c-0.081-0.009-0.162-0.019-0.243-0.028c-0.428-0.049-0.858-0.097-1.289-0.14
										c-0.641-2.475-1.466-4.931-1.464-6.849c0.001-1.052,0.158-2.323,1.09-3.382c0.699-0.794,1.476-1.3,2.573-1.373
										c0.996-0.066,1.715,0.443,2.338,0.977c0.022,0.019,0.044,0.036,0.065,0.057c0.075,0.073,0.147,0.146,0.215,0.219
										c0.538,0.575,0.868,1.179,0.962,2.476l-0.011,1.143l1.128-0.186c0.674-0.09,1.285-0.039,1.855,0.176c0,0,0,0,0.001,0
										c0.343,0.13,0.671,0.32,0.989,0.574c0.023,0.018,0.044,0.037,0.066,0.056c0.623,0.534,1.224,1.188,1.324,2.161
										c0.112,1.094-0.285,1.941-0.962,2.753C416.041,120.1,415.14,120.498,414.285,120.71z"/>
								</g>
							</g>
						</g>
					</g>
				</g>
			</g>
			<g>
				<path style="fill:#FF4B61;" d="M401.97,122.403l-1.522,8.439c-0.066,0.364,0.351,0.619,0.645,0.394l5.877-4.488L401.97,122.403z
					"/>
			</g>
		</g>
		<g>
			<g>
				<g>
					<path style="fill:#259BFF;" d="M382.468,103.521l20.97-3.728c1.259-0.224,2.098-1.426,1.874-2.684l-2.574-14.482
						c-0.224-1.259-1.426-2.098-2.684-1.874l-20.97,3.728c-1.259,0.224-2.098,1.425-1.874,2.684l2.574,14.482
						C380.008,102.905,381.209,103.744,382.468,103.521z"/>
				</g>
				<g>
					<g>
						<g>
							<g>
								<g>
									<path style="fill:#FFFFFF;" d="M386.016,94.205c0.163,0.162,0.331,0.311,0.495,0.448c0.039,0.033,0.079,0.065,0.119,0.097
										c1.075,0.852,2.644,1.552,4.271,2.287c0.068,0.031,0.136,0.061,0.203,0.092c0.358,0.162,0.719,0.326,1.076,0.495
										c1.664-1.641,3.465-3.179,4.363-4.684c0.493-0.826,0.967-1.896,0.733-3.164c-0.175-0.951-0.548-1.713-1.374-2.285
										c-0.75-0.52-1.553-0.458-2.292-0.331c-0.026,0.004-0.052,0.008-0.078,0.014c-0.093,0.022-0.184,0.046-0.272,0.071
										c-0.692,0.198-1.234,0.517-1.917,1.491l-0.528,0.902l-0.797-0.675c-0.486-0.387-0.989-0.634-1.537-0.733c0,0,0,0-0.001,0
										c-0.33-0.059-0.676-0.065-1.045-0.014c-0.026,0.004-0.052,0.008-0.078,0.013c-0.74,0.126-1.518,0.357-2.053,1.073
										c-0.601,0.805-0.688,1.656-0.538,2.611C384.926,92.902,385.445,93.637,386.016,94.205z"/>
								</g>
							</g>
						</g>
					</g>
				</g>
			</g>
			<g>
				<path style="fill:#259BFF;" d="M394.879,101.314l-2.768,7.332c-0.12,0.316-0.566,0.321-0.691,0.006l-2.502-6.279
					L394.879,101.314z"/>
			</g>
		</g>
	</g>
</g>
</svg>
